<?xml version="1.0" standalone="no"?>
<!DOCTYPE svg PUBLIC "-//W3C//DTD SVG 20010904//EN"
 "http://www.w3.org/TR/2001/REC-SVG-20010904/DTD/svg10.dtd">
<svg version="1.0" xmlns="http://www.w3.org/2000/svg"
 width="700.000000pt" height="700.000000pt" viewBox="0 0 700.000000 700.000000"
 preserveAspectRatio="xMidYMid meet">
<metadata>
Created by potrace 1.14, written by Peter Selinger 2001-2017
</metadata>
<g transform="translate(0.000000,700.000000) scale(0.100000,-0.100000)"
fill="#000000" stroke="none">
<path d="M3220 6994 c-182 -20 -243 -29 -360 -50 -890 -161 -1702 -683 -2227
-1432 -328 -467 -527 -979 -608 -1563 -22 -158 -31 -562 -16 -741 90 -1068
661 -2030 1556 -2623 466 -309 968 -492 1535 -561 202 -25 601 -25 800 -1 447
55 863 184 1240 384 69 37 138 67 154 67 21 1 34 9 45 28 9 15 68 63 132 107
382 259 711 594 960 976 43 66 85 130 94 143 23 32 157 305 204 415 136 320
232 707 262 1065 15 179 6 583 -16 741 -110 792 -446 1473 -1000 2026 -551
552 -1235 891 -2020 1001 -114 15 -640 29 -735 18z m350 -359 l0 -305 -25 0
-25 0 0 305 0 305 25 0 25 0 0 -305z m-1566 -390 c130 -224 143 -251 128 -263
-13 -10 -18 -10 -28 0 -6 7 -76 125 -154 262 -136 235 -143 249 -125 262 15
11 21 12 26 2 5 -7 73 -125 153 -263z m3238 203 c13 -11 -3 -45 -136 -274
-133 -230 -153 -261 -169 -252 -10 5 -17 15 -15 22 5 19 292 516 299 516 3 0
12 -6 21 -12z m-2102 -1173 c283 -25 687 -87 885 -135 148 -36 355 -55 575
-54 233 2 298 13 417 70 76 36 93 37 93 3 0 -26 -52 -128 -103 -204 -79 -117
-236 -252 -333 -287 l-34 -12 0 -1108 c0 -637 4 -1108 9 -1108 15 0 173 172
250 273 41 54 76 96 77 94 7 -7 -16 -228 -31 -299 -91 -439 -390 -764 -880
-961 -270 -108 -468 -142 -746 -126 -254 14 -410 49 -585 133 -155 74 -271
155 -390 268 -204 197 -334 433 -391 716 -24 117 -24 461 1 607 50 299 149
545 322 802 209 310 382 453 640 528 135 39 136 39 40 -79 -334 -412 -469
-770 -438 -1159 31 -374 146 -646 369 -872 235 -238 514 -347 838 -329 246 13
438 64 607 158 l93 53 3 1163 c2 1104 1 1162 -15 1155 -87 -34 -441 -53 -648
-35 -125 11 -287 36 -639 99 -277 50 -398 64 -586 63 -131 0 -191 -4 -240 -17
-106 -27 -196 -81 -283 -167 l-78 -78 6 73 c16 165 96 318 250 472 67 67 126
116 181 148 144 85 355 146 514 148 36 0 74 4 85 9 11 5 38 7 60 5 22 -2 69
-7 105 -10z m-2318 -168 c136 -78 248 -145 248 -148 0 -3 -6 -12 -12 -21 -12
-15 -43 1 -274 135 -233 135 -260 154 -250 169 6 10 17 16 26 12 8 -3 126 -69
262 -147z m5661 72 c-5 -4 -122 -73 -262 -154 -235 -136 -254 -145 -266 -128
-8 10 -11 21 -7 24 4 4 122 72 262 153 231 133 256 145 268 129 6 -9 9 -20 5
-24z m-2493 -1553 c0 -809 -1 -836 -20 -900 -53 -172 -253 -373 -449 -452 -77
-31 -196 -50 -243 -38 l-37 9 47 75 47 75 3 748 2 748 -22 -7 c-13 -3 -49 -20
-80 -35 -32 -16 -60 -29 -63 -29 -3 0 -5 51 -5 113 l0 113 353 207 c345 202
353 206 410 206 l57 1 0 -834z m2950 -111 l0 -25 -305 0 -305 0 0 25 0 25 305
0 305 0 0 -25z m-6270 -15 c0 -20 -7 -20 -305 -20 -298 0 -305 0 -305 20 0 20
7 20 305 20 298 0 305 0 305 -20z m5549 -1502 c135 -77 252 -146 259 -152 10
-10 10 -15 -1 -30 -12 -16 -34 -5 -275 134 -236 137 -261 154 -251 171 5 10
12 19 16 19 3 0 116 -64 252 -142z m-5155 75 c9 -23 15 -18 -273 -184 -241
-139 -260 -147 -261 -104 0 10 496 303 516 304 7 1 15 -7 18 -16z m4071 -1253
c139 -247 146 -262 129 -275 -11 -7 -22 -11 -26 -7 -4 4 -73 124 -153 266
-144 256 -151 275 -109 276 7 0 78 -117 159 -260z m-3022 198 c15 -12 2 -39
-131 -271 -82 -141 -151 -260 -155 -263 -3 -3 -14 0 -25 8 -19 13 -13 25 132
275 83 145 154 263 157 263 3 0 13 -6 22 -12z m1457 -653 l0 -305 -25 0 -25 0
0 305 0 305 25 0 25 0 0 -305z"/>
</g>
</svg>
