<svg aria-hidden="true" style="position: absolute; width: 0; height: 0; overflow: hidden;" version="1.1" xmlns="http://www.w3.org/2000/svg" xmlns:xlink="http://www.w3.org/1999/xlink">
<defs>

<symbol id="icon-arrow-down" viewBox="0 0 32 32">
<path d="M3.76 9.143l-3.76 3.479 16 14.807 16-14.807-3.76-3.479-12.24 11.303-12.24-11.303z"></path>
</symbol>
<symbol id="icon-arrow-left" viewBox="0 0 32 32">
<path d="M14.437 16l6.6 6.6-1.885 1.885-8.485-8.485 8.485-8.485 1.885 1.885-6.6 6.6z"></path>
</symbol>
<symbol id="icon-arrow-right" viewBox="0 0 32 32">
<path stroke-linejoin="round" stroke-linecap="round" stroke-miterlimit="4" stroke-width="2.6667" d="M12 24l8-8-8-8"></path>
</symbol>
<symbol id="icon-arrow-up" viewBox="0 0 32 32">
<path d="M4.576 22.4l-3.509-3.247 14.933-13.82 14.933 13.82-3.509 3.247-11.424-10.549-11.424 10.549z"></path>
</symbol>
<symbol id="icon-auth" viewBox="0 0 32 32">
<path d="M17.014 20.051c-0.539 0.539-0.539 1.417 0 1.958 0.261 0.261 0.608 0.405 0.978 0.405s0.717-0.143 0.979-0.405l5.034-5.033c0.125-0.128 0.224-0.277 0.298-0.453 0.065-0.155 0.103-0.334 0.103-0.523v-0c0-0.178-0.035-0.354-0.108-0.536-0.074-0.172-0.174-0.319-0.298-0.443l-5.030-5.030c-0.249-0.25-0.594-0.405-0.975-0.405-0.002 0-0.003 0-0.005 0h0c-0.001 0-0.003 0-0.005 0-0.381 0-0.725 0.155-0.974 0.405l-0 0c-0.54 0.54-0.54 1.418 0 1.958l2.667 2.667h-18.297c-0.763 0-1.384 0.621-1.384 1.384s0.621 1.384 1.384 1.384h18.297l-2.667 2.667z"></path>
<path d="M27.387 3.607h-15.561c-2.544 0-4.614 2.069-4.614 4.613l0.003 4.893h0.277c0.253 0.338 0.656 0.559 1.105 0.559 0.462 0 0.868-0.221 1.118-0.565l0.266-0.004v-4.883c0-1.016 0.828-1.844 1.845-1.844h15.561c1.017 0 1.845 0.828 1.845 1.844v15.562c0 1.017-0.828 1.844-1.845 1.844h-15.561c-1.017 0-1.845-0.827-1.845-1.844l-0.002-4.895h-0.278c-0.253-0.338-0.656-0.557-1.105-0.557-0.452 0-0.857 0.223-1.11 0.565l-0.275 0.004v4.883c0 2.543 2.069 4.612 4.614 4.612h15.562c2.544 0 4.613-2.069 4.613-4.612v-15.562c0-2.543-2.069-4.612-4.613-4.612z"></path>
</symbol>
<symbol id="icon-burger-menu" viewBox="0 0 32 32">
<path stroke-linejoin="round" stroke-linecap="round" stroke-miterlimit="4" stroke-width="2.6667" d="M4 16h24M4 8h24M4 24h24"></path>
</symbol>
<symbol id="icon-calendar" viewBox="0 0 32 32">
<path d="M22.666 4h5.334c0.736 0 1.333 0.597 1.333 1.333v0 21.334c0 0.736-0.597 1.333-1.333 1.333v0h-24c-0.736-0.001-1.332-0.597-1.333-1.333v-21.335c0-0.736 0.597-1.333 1.333-1.333v0h5.333v-2.667h2.667v2.667h8v-2.667h2.666v2.667zM26.666 14.667h-21.333v10.666h21.333v-10.666zM20 6.667h-8v2.666h-2.667v-2.666h-4v5.333h21.334v-5.333h-4v2.666h-2.667v-2.666zM8 17.333h2.667v2.667h-2.667v-2.667zM14.666 17.333h2.667v2.667h-2.667v-2.667zM21.333 17.333h2.667v2.667h-2.667v-2.667z"></path>
</symbol>
<symbol id="icon-check" viewBox="0 0 32 32">
<path d="M28.779 6.389c-0.288 0.009-0.546 0.131-0.732 0.323l-16.313 16.313-6.713-6.713c-0.194-0.197-0.463-0.319-0.761-0.319-0.589 0-1.067 0.478-1.067 1.067 0 0.297 0.122 0.566 0.318 0.76l7.467 7.467c0.193 0.193 0.46 0.313 0.755 0.313s0.562-0.12 0.755-0.313v0l17.067-17.067c0.199-0.194 0.323-0.465 0.323-0.765 0-0.589-0.478-1.067-1.067-1.067-0.011 0-0.022 0-0.033 0l0.002-0z"></path>
</symbol>
<symbol id="icon-close" viewBox="0 0 32 32">
<path stroke-linejoin="round" stroke-linecap="round" stroke-miterlimit="4" stroke-width="2.6667" d="M24 8l-16 16M8 8l16 16"></path>
</symbol>
<symbol id="icon-dateSort-asc" viewBox="0 0 32 32">
<path d="M29.938 13.689h-1.493v12.978h-24.889v-19.556h2.667v-1.778h-2.889c-0.862 0.015-1.556 0.717-1.556 1.582 0 0.009 0 0.019 0 0.028l-0-0.001v19.893c-0 0.008-0 0.017-0 0.027 0 0.865 0.693 1.567 1.554 1.582l0.001 0h25.333c0.862-0.015 1.556-0.717 1.556-1.582 0-0.009-0-0.019-0-0.028l0 0.001v-13.164z"></path>
<path d="M7.111 12.444h1.778v1.778h-1.778z"></path>
<path d="M12.444 12.444h1.778v1.778h-1.778z"></path>
<path d="M7.111 16.889h1.778v1.778h-1.778z"></path>
<path d="M12.444 16.889h1.778v1.778h-1.778z"></path>
<path d="M17.778 16.889h1.778v1.778h-1.778z"></path>
<path d="M23.111 16.889h1.778v1.778h-1.778z"></path>
<path d="M7.111 21.333h1.778v1.778h-1.778z"></path>
<path d="M12.444 21.333h1.778v1.778h-1.778z"></path>
<path d="M17.778 21.333h1.778v1.778h-1.778z"></path>
<path d="M23.111 21.333h1.778v1.778h-1.778z"></path>
<path d="M8.889 8.889c0.491 0 0.889-0.398 0.889-0.889v0-5.333c0-0.491-0.398-0.889-0.889-0.889s-0.889 0.398-0.889 0.889v0 5.333c0 0.491 0.398 0.889 0.889 0.889v0z"></path>
<path d="M23.867 1.013l-5.084 8.764c-0.124 0.179-0.198 0.401-0.198 0.641 0 0.628 0.509 1.138 1.138 1.138 0.013 0 0.026-0 0.039-0.001l-0.002 0h10.178c0.011 0 0.024 0.001 0.038 0.001 0.628 0 1.138-0.509 1.138-1.138 0-0.239-0.074-0.461-0.2-0.644l0.003 0.004-5.084-8.764c-0.201-0.339-0.566-0.564-0.982-0.564s-0.781 0.224-0.979 0.558l-0.003 0.005z"></path>
</symbol>
<symbol id="icon-dateSort-desc" viewBox="0 0 32 32">
<path d="M29.938 18.311h-1.493v-12.978h-24.889v19.556h2.667v1.778h-2.889c-0.862-0.015-1.556-0.717-1.556-1.582 0-0.009 0-0.019 0-0.028l-0 0.001v-19.893c-0-0.008-0-0.017-0-0.027 0-0.865 0.693-1.567 1.554-1.582l0.001-0h25.333c0.862 0.015 1.556 0.717 1.556 1.582 0 0.009-0 0.019-0 0.028l0-0.001v13.164z"></path>
<path d="M7.111 19.556h1.778v-1.778h-1.778z"></path>
<path d="M12.444 19.556h1.778v-1.778h-1.778z"></path>
<path d="M7.111 15.111h1.778v-1.778h-1.778z"></path>
<path d="M12.444 15.111h1.778v-1.778h-1.778z"></path>
<path d="M17.778 15.111h1.778v-1.778h-1.778z"></path>
<path d="M23.111 15.111h1.778v-1.778h-1.778z"></path>
<path d="M7.111 10.667h1.778v-1.778h-1.778z"></path>
<path d="M12.444 10.667h1.778v-1.778h-1.778z"></path>
<path d="M17.778 10.667h1.778v-1.778h-1.778z"></path>
<path d="M23.111 10.667h1.778v-1.778h-1.778z"></path>
<path d="M8.889 23.111c0.491 0 0.889 0.398 0.889 0.889v0 5.333c0 0.491-0.398 0.889-0.889 0.889s-0.889-0.398-0.889-0.889v0-5.333c0-0.491 0.398-0.889 0.889-0.889v0z"></path>
<path d="M23.867 30.987l-5.084-8.764c-0.124-0.179-0.198-0.401-0.198-0.641 0-0.628 0.509-1.138 1.138-1.138 0.013 0 0.026 0 0.039 0.001l-0.002-0h10.178c0.011-0 0.024-0.001 0.038-0.001 0.628 0 1.138 0.509 1.138 1.138 0 0.239-0.074 0.461-0.2 0.644l0.003-0.004-5.084 8.764c-0.201 0.339-0.566 0.564-0.982 0.564s-0.781-0.224-0.979-0.558l-0.003-0.005z"></path>
</symbol>
<symbol id="icon-earth" viewBox="0 0 32 32">
<path d="M16 32c-8.836 0-16-7.164-16-16s7.164-16 16-16c8.836 0 16 7.164 16 16s-7.164 16-16 16zM28.968 14.659c0.026-0.013 0.040-0.035 0.050-0.070 0.021 0.111 0.072 0.209 0.154 0.281 0.002 0.010-0.003 0.008 0.002 0.022 0.008 0 0.014-0.006 0.021-0.006 0.084 0.068 0.188 0.114 0.305 0.114 0.18 0 0.33-0.1 0.418-0.241 0.006 0.007 0.016 0.016 0.021 0.024-0.001-0.016-0.003-0.032-0.005-0.048 0.039-0.071 0.066-0.149 0.066-0.235 0-0.276-0.225-0.5-0.5-0.5-0.176 0-0.322 0.096-0.412 0.232-0.004-0.003 0-0.015-0.011-0.011 0.013-0.038-0.022-0.135-0.077-0.239v0.518c0 0.057-0.016 0.108-0.032 0.159zM5.992 14.509c0-0.151-0.344-0.408-0.433-0.408 0-0.027-0.14-0.335-0.193-0.335 0-0.104-0.365-0.571-0.423-0.367-0.038 0.132 0.279 0.31 0.279 0.463 0.059 0 0.307 0.47 0.356 0.552 0.542 0.916-0.405 0.29-0.405-0.098-0.121-0.060-0.312-0.521-0.312-0.647-0.071-0.057-0.281-0.502-0.264-0.502 0-0.292-0.161-0.432-0.481-0.432-0.015-0.029-0.284-0.407-0.289-0.407 0-0.12-0.216-0.492-0.336-0.551 0-0.249-0.128-0.556-0.071-0.814 0-0.271-0.014-0.578-0.106-0.856-0.835 1.793-1.314 3.785-1.314 5.893 0 6.041 3.834 11.174 9.196 13.137 0.006-0.496 0.043-1.090 0.156-1.090 0-0.074 0.063-0.384 0.12-0.384 0-0.19 0.023-0.419 0-0.647-0.071-0.143 0.094-0.326 0.144-0.551 0.277-0.139 0.081-1.533 0.29-1.533 0-0.697 0.156-1.103 0.047-1.749 0.053 0-0.315-0.391-0.312-0.384-0.353 0-0.6-0.566-0.6-0.814-0.034-0.109-0.121-0.272-0.121-0.407 0.081 0-0.505-0.856-0.505-0.839-0.31-0.172 0.017-0.412 0.048-0.694-0.269-0.089 0.003-0.815 0.12-0.815 0.012-0.092 0.060-0.155 0.145-0.191 0.060 0.239 0.339-0.119 0.12-0.119 0-0.158-0.018-0.496 0-0.575 0-0.244-0.216-0.722-0.384-0.216-0.18-0.089-0.634-0.073-0.673-0.359 0.028-0.141-0.259-0.429-0.36-0.479 0.094-0.246-0.487-0.575-0.697-0.575 0-0.053-0.111-0.029-0.144-0.096-0.214 0-0.263-0.288-0.505-0.288-0.279 0-0.56-0.191-0.817-0.191-0.086-0.171-0.485-0.104-0.577-0.288-0.209 0-0.291-0.396-0.297-0.542-0.009-0.18-0.152-0.802-0.402-0.802zM26.248 6.484c-0.002 0.006 0.002 0.002-0.008 0.022 0.015 0 0.033 0.017 0.050 0.024-0.015-0.015-0.028-0.030-0.042-0.046zM26.549 6.815c0.035 0.068 0.061 0.131 0.053 0.17 0.035 0.001 0.052-0.018 0.080-0.025-0.043-0.049-0.090-0.095-0.133-0.145zM27.418 11.371c0.016-0.432-0.36-0.36-0.479-0.6-0.124 0-0.169-0.096-0.337-0.096-0.109-0.037-0.195-0.011-0.258 0.078-0.257 0.098-0.102-0.125-0.295-0.125 0.009-0.247-0.089-0.315-0.361-0.288-0.156 0.352-0.396 0.563-0.36 0.959 0.115 0.026 0.095 0.052 0.072 0.167 0.153 0.008 1.081-0.048 1.081-0.144 0.032 0 0.193 0.331 0.193 0.048 0.129 0 0.197 0.303 0.505 0.215 0 0.062 0.514-0.214 0.239-0.214zM27.467 16.474c0.018-0.088-0.044-0.127-0.096-0.216 0.137 0-0.433-1.057-0.433-1.222-0.087-0.043-0.198-0.345-0.218-0.455-0.117-0.078-0.238-0.334-0.288-0.479-0.119-0.079-0.409-0.433-0.456-0.599 0.172 0.019 0.432 0.054 0.432-0.168-0.116 0-0.133-0.143-0.023-0.143-0.036-0.147 0.078-0.253 0.103-0.368 0.030-0.139 0.089-0.353 0.089-0.519-0.165 0-0.205 0.028-0.336 0.072 0 0.097-0.293-0.024-0.336-0.024-0.063-0.126-0.52 0.164-0.648-0.096-0.207-0.187-0.151-0.331-0.218-0.595-0.034-0.134-0.217-0.142-0.328-0.164-0.313-0.061-0.087 0.373-0.104 0.472 0.192 0-0.121 0.238-0.121 0.359-0.324-0.070-0.216-0.431-0.407-0.527-0.057-0.096-0.012-0.168-0.145-0.168 0-0.128 0.068-0.36-0.072-0.407 0-0.062-0.272-0.087-0.312-0.168-0.172 0-0.572-0.65-0.695-0.431-0.077 0.14 0.065 0.174 0.094 0.288 0.249-0.049 0.225 0.41 0.529 0.359 0 0.064 0.008 0.129 0.023 0.192 0.225-0.053 0.199 0.167 0.312 0.167-0.082 0.109-0.342-0.174-0.271 0.064 0.041 0.138 0.018 0.256-0.161 0.391 0-0.149-0.012-0.551-0.168-0.551-0.106-0.212-0.421-0.161-0.554-0.359-0.108 0-0.15-0.336-0.336-0.359-0.035 0.049-0.166 0.096-0.217 0.096-0.101 0.203-0.672 0.021-0.672 0.048-0.009 0.002-0.32 0.762-0.338 0.862-0.035 0.215-0.208 0.219-0.26 0.423-0.026 0.102-0.653 0.054-0.653 0.129-0.271-0.090-0.505-0.28-0.505-0.575-0.022 0 0.051-0.753 0.097-0.863 0.055 0.015 0.066 0.034 0.097 0.096 0.166-0.062 0.553 0.041 0.553-0.144 0.161 0.004 0.209 0.068 0.144 0.192 0.15 0.028 0.409 0.066 0.409-0.144-0.088 0-0.097-0.008-0.097-0.096 0.288-0.299-0.216-0.569-0.216-0.718-0.102-0.034-0.31-0.255-0.162-0.172 0.125 0.069 0.582 0.212 0.402-0.092 0.012-0.004 0.020-0.012 0.023-0.023 0.051 0.036 0.266 0.257 0.266 0.048 0.059 0 0.287-0.144 0.096-0.144 0.018-0.108 0.014-0.198 0.023-0.264 0.305 0.164 0.135-0.112 0.289-0.215 0 0.199 0.164-0.096 0.264-0.096 0.119-0.177 0.391-0.040 0.457-0.24-0.147-0.048-0.12-0.416-0.12-0.55 0.177 0.029 0.374-0.239 0.401-0.055 0.010 0.071 0.019 0.267 0.055 0.294 0.263 0.138 0.193-0.079 0.193-0.215-0.088 0-0.205-0.308-0.217-0.456-0.072 0.010-0.188 0.040-0.217 0.095-0.262 0-0.44-0.095-0.648-0.095-0.016-0.032-0.266-0.312-0.24-0.312-0.146-0.251 0.146-0.178 0.192-0.19 0-0.238 0.991-0.196 1.034-0.576-0.326 0 0.336-0.552 0.336-0.55 0.221-0.189 0.338-0.352 0.613-0.373 0.116-0.008 1.406-0.364 1.406-0.203 0.052 0.002 0.224 0.004 0.402 0.010-2.497-2.322-5.834-3.752-9.513-3.752-3.563 0-6.806 1.342-9.277 3.535 0.022 0.050 0.039 0.098 0.038 0.132 0.131-0.009 0.319-0.093 0.361 0.073-0.065-0.001-0.13-0.009-0.192-0.025 0.046 0.371-0.162 0.144-0.336 0.144 0-0.009-0.077-0.040-0.159-0.062-0.053 0.050-0.109 0.097-0.162 0.147 0.006 0.016-0.003 0.017 0.007 0.035 0.056 0 0.027 0.087 0.187 0.14 0.185 0.063 0.388 0.098 0.583 0.129 0.158 0.025 0.249-0.029 0.384-0.029 0-0.020 0.33-0.167 0.097-0.167 0.032-0.132-0.027-0.165-0.169-0.167 0.012-0.14 0.345-0.048 0.481-0.048 0.104-0.175 0.003-0.154 0.095-0.313 0.11-0.195 0.241-0.026 0.313-0.213 0.109 0.040 0.206 0.099 0.241 0.237 0.087 0.072 0.529 0.724 0.529 0.263 0.158 0.053 0.237 0.349 0.24 0.504 0.287-0.042 0.312-0.257 0.312-0.48 0.066 0-0.024-0.107-0.024-0.144 0.107-0.039 0.241 0.102 0.241-0.047 0.046 0 0.048 0.046 0.048 0.096 0.149 0.029 0.245-0.017 0.336 0.015 0.063 0.022 0.031 0.349 0.002 0.464-0.036 0.146-0.315 0.148-0.315 0.216-0.316 0.236 0.373 0.359 0.481 0.503-0.065 0-0.312-0.032-0.312-0.047-0.156 0-0.534 0.165-0.673 0.047 0.194 0 0.259-0.233 0.289-0.455-0.179-0.067-0.39 0.043-0.44 0.221-0.084 0.294-0.279-0.012-0.377 0.186-0.038 0.012-0.385 0.173-0.385 0.119-0.39 0.055-0.288 0.386-0.288 0.743 0.155 0.093 0.47 0.358 0.456 0.503 0.35 0.062 0.478 0.099 0.793 0.144 0.026 0.051 0.13 0.099 0.193 0.119 0 0.206 0.187 0.169 0.36 0.169 0-0.263 0.306 0.219 0.336 0.311-0.042 0 0.072 0.269 0.096 0.36-0.048-0.017-0.063 0-0.048 0.048 0.152 0.056 0.393 0.040 0.433-0.12-0.146 0-0.097-0.167-0.097-0.264-0.15-0.1-0.127-0.293 0.024-0.335 0 0.136 0.495-0.085 0.216-0.191 0.068-0.153 0.114-0.388 0.003-0.521-0.071-0.084-0.16 0-0.195-0.126 0.189-0.047 0.050-0.407 0.048-0.575 0.060-0.023 0.216 0.038 0.216 0 0.185 0 0.493 0.234 0.601-0.049 0.309 0.141 0.063 0.275 0.385 0.168 0 0.076 0.363 0.431 0.409 0.431 0 0.017-0.009 0.12 0.071 0.12 0 0.077-0.048-0.044-0.048 0.095 0.045 0.005 0.289 0.049 0.289-0.047 0.155 0 0.264-0.19 0.264-0.335 0.097-0.063 0.267 0.527 0.384 0.527 0.086 0.134 0.361 0.329 0.361 0.455 0.058 0.059 0.119 0.043 0.119 0.216 0.073 0 0.217-0.287 0.217-0.024 0.068 0 0.266 0.146 0.289 0.263-0.173 0-0.009 0.168-0.098 0.168 0 0.166-0.371 0.034-0.455 0.024-0.115 0.515-0.809 0.145-1.229 0.278-0.221 0.070-0.648 0.557-0.671 0.8 0.268 0.003 0.386-0.232 0.625-0.312 0.195 0 0.233-0.118 0.409-0.167 0 0.049 0.048 0.023 0.048 0.072-0.342 0-0.134 0.221-0.034 0.382 0.062 0.1 0.133 0.148 0.212 0.179-0.033 0.058-0.060 0.116-0.081 0.181 0 0.001-0.001 0-0.001 0.001-0.065 0.022-0.192 0.069-0.217 0.12-0.387 0.043-0.196 0.017-0.17-0.076 0.014 0.033 0.153 0.003 0.147 0.004-0.023-0.116-0.058-0.1-0.024-0.167-0.21 0-0.312 0.096-0.481 0.096-0.028 0.057-0.175 0.192-0.24 0.192-0.049 0.148-0.16 0.417-0.289 0.503 0-0.039-0.342 0.215-0.312 0.215-0.076 0.123-0.159 0.119-0.193 0.311-0.023 0.012-0.12 0.333-0.12 0.383-0.149 0.099-0.204 0.503-0.457 0.503-0.155 0.308-0.433 0.267-0.433 0.671 0.094 0.096 0.13 0.521 0.159 0.657 0.036 0.169 0.092 0.345-0.134 0.349-0.016-0.025-0.174-0.264-0.145-0.264 0-0.099-0.121-0.416-0.192-0.515-0.095-0.133-0.271 0.021-0.409-0.037-0.059-0.118-0.458-0.144-0.6-0.144 0.023 0.089 0.088 0.117 0.096 0.216-0.118 0.048-0.186 0.102-0.308 0.085-0.209-0.029-0.184-0.192-0.414-0.169-0.368 0.037-0.625 0.342-0.625 0.707-0.041 0-0.041 0.719 0 0.719 0 0.203 0.168 0.35 0.168 0.503 0.163 0 0.346 0.359 0.505 0.359 0.018 0.127-0.080 0.147 0.192 0.145 0-0.014 0.148-0.093 0.168-0.192-0.188-0.046-0.001-0.288 0.12-0.335 0 0.171 0.24-0.057 0.24-0.072 0.027-0.011 0.265-0.096 0.265-0.096 0-0.194 0.181 0.019 0.048 0.096-0.13 0-0.12 0.216-0.192 0.216-0.031 0.154-0.092 0.288-0.128 0.438-0.046 0.185 0.104 0.204 0.056 0.377 0.191 0.036 0.384 0.001 0.577 0 0.001-0.034-0.006-0.067-0.024-0.096 0.279 0 0.024 0.527 0.193 0.527 0 0.199 0.096 0.354 0.096 0.479 0.13 0.086 0.208 0.201 0.168 0.359 0.16 0.021 0.504 0.062 0.504-0.144 0.243 0 0.26 0.165 0.242 0.335 0.484 0 0.181-0.479 0.383-0.479 0.019-0.079 0.052-0.093 0.099-0.041 0.099 0.053 0.174-0.099 0.253-0.147 0.025-0.017 0.113-0.068 0.129-0.068 0.068 0.041 0.074 0.029 0.104 0.075 0.132-0.001 0.265-0.075 0.378-0.153 0.173 0.021 0.117 0.393 0.441 0.416 0.13 0.009 0.431 0.045 0.543-0.032 0.028-0.019 0.131 0.065 0.142 0.101 0.108 0 0.1 0.094 0.146 0.092 0.011 0.021 0.027 0.029 0.049 0.023 0.014 0.041 0.1 0.053 0.145 0.167 0 0.104 0.216 0.122 0.216 0.191 0.155 0.078-0.053 0.099 0.185 0.171 0.131 0.041 0.252 0.107 0.393 0.117 0.045-0.171 0.191 0.023 0.265 0.023 0.038 0.078 0.058 0.019 0.095 0.096 0.223 0.186 0.076 0.114 0.168 0.312 0.107 0.070 0.141 0.314 0.17 0.455-0.086 0-0.025 0.329-0.025 0.36-0.104 0 0.266 0.197 0.266-0.049 0.152 0.025 0.252 0.191 0.36 0.191-0.063 0.145 0.168 0.254 0.168 0.025 0.228 0.023 0.167 0.363 0.145 0.479 0.169 0 0.218-0.094 0.362-0.112 0.156-0.099 0.33-0.171 0.527-0.171 0.553 0 1 0.447 1 1 0 0.498-0.371 0.893-0.848 0.969-0.064 0.073-0.122 0.136-0.126 0.136 0 0.048-0.011 0.526-0.025 0.526 0 0.096-0.073 0.623-0.144 0.623 0 0.271-0.177 0.32-0.24 0.575-0.146 0.108-0.541 0.288-0.602 0.407-0.113 0-0.197 0.096-0.312 0.096-0.016 0.033-0.261 0.264-0.217 0.264-0.018 0.17 0.013 0.57-0.079 0.682-0.062 0.074-0.151 0.066-0.112 0.182-0.135 0 0.008 0.096-0.205 0.096-0.134 0-0.373 0.191-0.38 0.353-0.009 0.198-0.062 0.341-0.232 0.462 0 0.068-0.312 0.088-0.312 0.264 0.029 0 0 0.326 0 0.359-0.093-0.003-0.321 0.090-0.36 0.167-0.314 0-0.276 0.032-0.48 0.168 0 0.042-0.029 0.191-0.072 0.191 0 0.243-0.173 0.022-0.313 0.145 0.055 0 0.125 0.239 0.096 0.239 0 0.211-0.131 0.229-0.264 0.384-0.063 0.042-0.123 0.216-0.168 0.216 0 0.142-0.071 0.271-0.071 0.407 0.030 0 0.002 0.061 0.023 0.118 0.067-0.019 0.069-0.095 0.096-0.095 0-0.12 0.191 0.071 0.072 0.071-0.099 0.15-0.206 0.153-0.265 0.36-0.060 0-0.112 0.058-0.156 0.126 1.178 0.321 2.414 0.509 3.696 0.509 4.924 0 9.246-2.548 11.742-6.393 0.015-0.354 0.070-0.692 0.109-0.809 0.098 0.072 0.171 0.207 0.24 0-0.173-0.034-0.131-0.094-0.072-0.239 0.066 0.040 0.199 0.089 0.307 0.082 0.033-0.062 0.059-0.128 0.092-0.19-0.098-0.076 0.037-0.273 0.084-0.177 0.025-0.048 0.047-0.098 0.070-0.146-0.011-0.003-0.008 0.004-0.024-0.001 0-0.087 0.016-0.076 0.073-0.12 0.001 0.009 0 0.009 0.002 0.017 0.873-1.827 1.377-3.864 1.377-6.024 0-0.071-0.010-0.139-0.011-0.21-0.026 0.098-0.075 0.204-0.144 0.228 0 0.063-0.715 0.374-0.672 0.503-0.126 0-0.568 0.126-0.649 0.287-0.089 0-0.448 0.127-0.481 0.192-0.446 0.001-0.361-0.526-0.576-0.526zM29.5 11h-0.531c-0.004-0.005-0.008-0.006-0.012-0.013-0.027 0-0.14-0.254-0.096-0.312 0.043 0 0.063 0.004 0.086 0.006-0.045-0.11-0.094-0.218-0.143-0.327-0.108 0.074-0.203 0.168-0.352 0.177 0 0.041-0.213 0.455 0 0.455 0 0.008 0.004 0.014 0.006 0.021-0.255 0.024-0.458 0.232-0.458 0.493 0 0.276 0.224 0.5 0.5 0.5h0.197c0.012 0.091 0.061 0.17 0.236 0.209 0.055 0.231 0.467 0.313 0.529 0.071-0.174 0-0.117-0.167-0.102-0.28h0.14c0.275 0 0.5-0.224 0.5-0.5s-0.225-0.5-0.5-0.5zM28.043 17.502c0.035 0.002 0.266-0.004 0.266-0.045 0.209 0 0.492-0.029 0.697-0.097 0 0.31-0.261 0.483-0.217 0.791-0.173 0-0.097 0.178-0.097 0.239-0.112 0.069-0.129 0.195-0.264 0.264 0 0.139-0.312 0.369-0.404 0.488-0.104 0.133-0.417 0.364-0.458 0.533 0.011-0.040-0.572 0.607-0.436 0.607 0 0.121-0.164 1.078 0.048 1.078 0 0.084 0.181 0.887 0.071 0.887 0 0.258-0.168 0.416-0.168 0.622-0.082 0.056-0.199 0.087-0.24 0.169-0.147 0-0.218 0.312-0.288 0.312 0 0.333-0.097 0.58-0.097 0.958 0.027 0-0.192 0.539-0.192 0.574-0.177 0.119-0.625 0.546-0.625 0.768 0 0-0.312 0.438-0.36 0.503-0.094 0-0.818 0.136-0.818 0.192-0.154 0-0.552 0.121-0.648-0.024 0-0.152-0.083-0.345-0.096-0.552-0.074 0-0.086-0.311-0.168-0.311 0-0.066-0.459-0.983-0.385-0.983 0-0.095-0.082-0.407-0.096-0.407 0-0.33-0.241-0.605-0.241-0.91-0.071 0-0.218-0.67-0.144-0.67 0-0.352 0.123-0.582 0.174-0.973 0.057-0.429-0.027-0.69-0.102-0.993-0.041 0-0.179-0.229-0.193-0.287-0.193-0.128-0.264-0.382-0.264-0.622 0.126-0.144 0.176-0.685 0.145-0.863-0.243-0.115-0.34-0.072-0.602-0.072-0.155-0.311-1.196-0.119-1.491-0.119 0 0.17-0.725-0.033-0.793-0.168-0.177 0-0.528-0.376-0.528-0.551-0.194-0.129-0.504-0.771-0.504-0.982-0.168-0.084-0.117-0.408-0.025-0.408 0.023-0.090-0.059-0.374-0.098-0.509-0.029-0.101 0.098-0.21 0.098-0.33 0-0.334 0.008-0.488 0.195-0.845 0.059-0.112 0.134-0.217 0.189-0.357 0.1-0.251 0.13-0.012 0.265-0.236 0.129-0.064 0.204-0.278 0.337-0.383 0.058-0.077 0.060-0.109 0-0.168 0.026 0 0.168-0.369 0.168-0.454 0.188-0.261 0.055-0.142 0.24-0.12 0.068-0.074 0.181-0.264 0.288-0.264 0.047-0.093 0.165-0.144 0.265-0.144 0 0.144 0.392-0.047 0.433-0.047 0.067-0.135 0.499-0.288 0.601-0.288 0-0.164 0.852 0.046 0.986 0.024 0-0.024 0-0.048 0-0.072 0.182 0.043 0.514 0.773 0.48 0.935 0.14 0 0.27-0.023 0.361 0 0 0.155 0.292 0.193 0.425 0.2 0.185 0.009 0.728-0.019 0.728-0.272 0.143 0 0.27 0.1 0.242 0.263 0.162 0.018 1.125 0.037 1.057 0.239 0.141 0 0.177 0.241 0.312 0.241-0.027 0.166 0.168 0.599 0.312 0.599 0 0.144 0.090 0.409 0.217 0.502 0.068 0.206 0.293 0.64 0.504 0.767-0.090 0.17 0.137 0.31 0.193 0.479-0.013 0 0.049 0.251 0.119 0.288 0 0.17 0.358 0.863 0.554 0.863 0.013 0.084-0.184 0.122 0.072 0.141zM22.852 12.137c0.037-0.143 0.121-0.032 0.199-0.006 0.185 0.060 0.121-0.003 0.258-0.065 0 0.39-0.224 0.094-0.457 0.071zM22.346 11.418c0.098 0 0.125 0.44-0.144 0.359 0-0.109-0.069-0.311 0.073-0.311 0.041 0.17 0.071 0.101 0.071-0.048zM22.227 11.131c0.111 0.048 0.16 0.032 0.144-0.048 0.146 0.048-0.019 0.152-0.048 0.264-0.075-0.074-0.052-0.1-0.096-0.216zM19.654 8.998c-0.236-0.061 0.243-0.131 0.264-0.191-0.080 0-0.135-0.083-0.104-0.153 0.036-0.083 0.095 0.099 0.177 0.058 0.097-0.010 0.288-0.155 0.19 0.125-0.1 0.284-0.191 0.492-0.551 0.497-0.129-0.13-0.005-0.198 0.024-0.336zM20.544 8.016c0.194 0 0.024 0.144-0.019 0.144 0.033 0.013-0.006 0.129-0.006 0.167 0.18-0.002 0.183-0.112 0.312-0.144-0.027 0.161-0.207 0.192-0.031 0.33 0.093 0.073 0.188 0.159 0.151 0.27 0.229 0 0.263 0.22 0.216 0.479 0.127 0 0.121 0.006 0.121-0.121 0.123 0.034 0.114 0.145 0 0.145-0.114 0.225-0.413 0.215-0.625 0.215-0.002-0.174-0.035-0.185-0.196-0.136-0.22 0.067-0.048-0.175-0.044-0.295 0.024 0 0.499 0.022 0.216-0.072-0.015-0.258-0.073-0.335-0.312-0.335 0-0.176-0.062-0.163-0.091-0.356-0.041-0.285 0.223 0.020 0.308-0.291zM20.471 9.573c0 0.059-0.12 0.106-0.144 0.023 0.023 0.008 0.032 0 0.023-0.023 0.041 0 0.082 0 0.121 0zM18.5 7h-1c-0.276 0-0.5-0.224-0.5-0.5s0.224-0.5 0.5-0.5h1c0.276 0 0.5 0.224 0.5 0.5s-0.224 0.5-0.5 0.5zM12.674 15.85c0.056 0 0.121 0.022 0.121 0.072-0.073 0-0.167 0.069-0.121-0.072zM11.762 15.899c-0.040 0.076-0.364 0.063-0.409-0.025 0.12 0 0.213 0.049 0.336 0 0-0.066-0.055-0.119-0.096-0.191 0.131 0 0.278 0.1 0.457 0.096 0-0.111-0.049 0.024 0-0.12 0.075 0.019 0.256 0.191 0.264 0.263-0.263-0.028-0.275-0.023-0.552-0.023zM10.704 15.324c-0.123 0-0.36-0.107-0.433-0.216 0.119 0.005 0.237 0.054 0.312-0.072 0.305 0.031 0.332 0.241 0.577 0.241 0.046 0.081 0.308 0.267 0.055 0.291-0.191 0.018-0.431-0.086-0.511-0.244zM10.896 15.995c-0.089 0-0.236 0.039-0.168-0.145 0.118 0.016 0.174 0.065 0.168 0.145zM11.064 15.971c-0.048 0.008-0.096 0.016-0.144 0.024 0.014-0.111 0.119-0.235 0.144-0.024zM11.953 17.024c-0.019 0.067-0.016 0.071-0.095 0.071 0.008-0.031 0.015-0.062 0.023-0.095 0.025 0.008 0.048 0.016 0.072 0.024zM9.79 15.036c0.023 0.008 0.048 0.017 0.072 0.024 0.031 0.119 0.096 0.060 0.168 0.024 0 0.139-0.322 0.179-0.24-0.048z"></path>
</symbol>
<symbol id="icon-eject" viewBox="0 0 32 32">
<path d="M5.573 17.903c-0.151 0.213-0.241 0.478-0.241 0.764 0 0.736 0.597 1.333 1.333 1.333 0 0 0 0 0.001 0h18.667c0 0 0 0 0.001 0 0.736 0 1.333-0.597 1.333-1.333 0-0.286-0.090-0.551-0.243-0.768l0.003 0.004-9.333-13.333c-0.244-0.347-0.643-0.57-1.093-0.57s-0.849 0.224-1.091 0.566l-0.003 0.004-9.333 13.333zM5.333 25.6c0 1.325 1.075 2.4 2.4 2.4v0h16.533c1.325 0 2.4-1.075 2.4-2.4v0-0.533c0-1.325-1.075-2.4-2.4-2.4v0h-16.533c-1.325 0-2.4 1.075-2.4 2.4v0 0.533z"></path>
</symbol>
<symbol id="icon-eye-closed" viewBox="0 0 32 32">
<path d="M20.771 18.177c0.298-0.638 0.471-1.385 0.471-2.173 0-2.897-2.348-5.245-5.245-5.245-0.788 0-1.536 0.174-2.206 0.485l0.032-0.014 1.583 1.581c0.179-0.035 0.385-0.055 0.596-0.055 0.895 0 1.706 0.363 2.292 0.95l0 0c0.586 0.586 0.949 1.396 0.949 2.291 0 0.211-0.020 0.418-0.059 0.617l0.003-0.020 1.584 1.583z"></path>
<path d="M7.817 10.411c-0.345 0.284-0.672 0.571-0.98 0.853-1.237 1.149-2.353 2.392-3.348 3.73l-0.052 0.072c-0.052 0.068-0.133 0.18-0.212 0.294l-0.034 0.052-0.013 0.021-0.005 0.005v0.003l-0.377 0.559 0.373 0.557 0.001 0.001 0.001 0.003 0.004 0.005 0.015 0.021c0.099 0.147 0.179 0.26 0.263 0.371l-0.017-0.024c1.047 1.41 2.163 2.653 3.383 3.786l0.017 0.016c2.227 2.049 5.465 4.264 9.164 4.264 1.827 0 3.54-0.54 5.075-1.333l-1.497-1.496c-1.139 0.512-2.343 0.829-3.577 0.829-2.928 0-5.689-1.785-7.808-3.736-1.069-0.992-2.038-2.059-2.911-3.203l-0.045-0.061c0.919-1.205 1.888-2.272 2.941-3.249l0.016-0.015c0.333-0.307 0.684-0.611 1.048-0.904l-1.423-1.421zM22.76 20.168c0.364-0.293 0.715-0.596 1.048-0.904 1.069-0.992 2.039-2.059 2.913-3.203l0.045-0.061c-0.919-1.205-1.888-2.272-2.941-3.249l-0.016-0.015c-2.119-1.951-4.88-3.736-7.808-3.736-1.233 0-2.439 0.317-3.577 0.829l-1.497-1.496c1.535-0.793 3.249-1.333 5.075-1.333 3.699 0 6.937 2.215 9.163 4.264 1.237 1.149 2.353 2.392 3.348 3.73l0.052 0.072c0.053 0.069 0.134 0.181 0.213 0.295l0.033 0.050 0.013 0.021 0.005 0.005 0.001 0.003 0.376 0.559-0.376 0.559-0.001 0.003-0.004 0.005-0.013 0.021c-0.098 0.145-0.179 0.258-0.263 0.369l0.016-0.022c-1.047 1.41-2.163 2.653-3.383 3.786l-0.017 0.016c-0.309 0.283-0.636 0.569-0.981 0.853l-1.423-1.421zM25 26.413l-20-20 1.413-1.413 20 20-1.413 1.413z"></path>
</symbol>
<symbol id="icon-eye-opened" viewBox="0 0 32 32">
<path d="M16 7c-3.699 0-6.937 2.215-9.163 4.264-1.237 1.149-2.353 2.392-3.348 3.73l-0.052 0.072c-0.052 0.068-0.133 0.18-0.212 0.294l-0.034 0.052-0.013 0.021-0.005 0.005-0.365 0.579 0.364 0.541 0.001 0.003 0.004 0.005 0.015 0.021c0.099 0.147 0.179 0.26 0.263 0.371l-0.017-0.024c1.047 1.41 2.163 2.653 3.383 3.786l0.017 0.016c2.227 2.049 5.465 4.264 9.164 4.264s6.937-2.215 9.163-4.264c1.237-1.149 2.353-2.392 3.348-3.73l0.052-0.072c0.051-0.067 0.132-0.18 0.212-0.293l0.035-0.052 0.013-0.021 0.005-0.005 0.001-0.003 0.376-0.559-0.376-0.56h-0.001l-0.004-0.007-0.013-0.021c-0.098-0.145-0.179-0.258-0.263-0.369l0.016 0.022c-1.047-1.41-2.163-2.653-3.383-3.786l-0.017-0.016c-2.228-2.049-5.467-4.264-9.164-4.264zM5.72 16.621c-0.128-0.156-0.287-0.359-0.443-0.563l-0.042-0.058c0.919-1.205 1.888-2.272 2.941-3.249l0.016-0.015c2.119-1.951 4.88-3.736 7.808-3.736s5.691 1.785 7.808 3.736c1.069 0.992 2.039 2.059 2.913 3.203l0.045 0.061c-0.919 1.205-1.889 2.272-2.943 3.249l-0.016 0.015c-2.115 1.951-4.877 3.736-7.807 3.736-2.928 0-5.689-1.785-7.808-3.736-0.881-0.817-1.69-1.68-2.436-2.597l-0.036-0.046zM19 16c0 1.657-1.343 3-3 3s-3-1.343-3-3v0c0-1.657 1.343-3 3-3s3 1.343 3 3v0zM21 16c0 2.761-2.239 5-5 5s-5-2.239-5-5v0c0-2.761 2.239-5 5-5s5 2.239 5 5v0z"></path>
</symbol>
<symbol id="icon-heart" viewBox="0 0 32 32">
<path stroke-linejoin="round" stroke-linecap="round" stroke-miterlimit="4" stroke-width="2" d="M9.334 4c-3.682 0-6.668 2.954-6.668 6.6 0 2.942 1.168 9.926 12.652 16.986 0.194 0.12 0.43 0.191 0.682 0.191s0.488-0.071 0.688-0.194l-0.006 0.003c11.484-7.060 12.652-14.044 12.652-16.986 0-3.646-2.986-6.6-6.668-6.6-3.68 0-6.666 4-6.666 4s-2.986-4-6.666-4z"></path>
</symbol>
<symbol id="icon-heart-menu" viewBox="0 0 32 32">
<path stroke-linejoin="round" stroke-linecap="round" stroke-miterlimit="4" stroke-width="1.7778" d="M27.787 6.146c-1.327-1.328-3.161-2.149-5.187-2.149s-3.859 0.821-5.187 2.149l-1.413 1.413-1.413-1.413c-1.325-1.315-3.151-2.128-5.166-2.128-4.051 0-7.335 3.284-7.335 7.335 0 2.015 0.813 3.841 2.128 5.167l11.786 11.786 11.787-11.787c1.328-1.327 2.149-3.161 2.149-5.187s-0.821-3.859-2.149-5.187l-0-0z"></path>
</symbol>
<symbol id="icon-home" viewBox="0 0 32 32">
<path stroke-linejoin="round" stroke-linecap="round" stroke-miterlimit="4" stroke-width="1.7778" d="M4 12l12-9.333 12 9.333v14.667c0 1.473-1.194 2.667-2.667 2.667v0h-18.667c-1.473 0-2.667-1.194-2.667-2.667v0-14.667z"></path>
<path stroke-linejoin="round" stroke-linecap="round" stroke-miterlimit="4" stroke-width="1.7778" d="M12 29.333v-13.333h8v13.333"></path>
</symbol>
<symbol id="icon-humidity" viewBox="0 0 32 32">
<path d="M8.064 18.336c0-0.939 0.256-2.016 0.768-3.232s1.173-2.4 1.984-3.531c1.664-2.197 3.115-3.861 4.331-4.981l0.8-0.768c0.267 0.277 0.565 0.533 0.885 0.768 0.437 0.448 1.109 1.184 2.005 2.229s1.675 1.973 2.315 2.827c0.757 1.077 1.408 2.24 1.931 3.467s0.789 2.304 0.789 3.232c0 1.067-0.203 2.080-0.619 3.051s-0.971 1.813-1.675 2.517c-0.704 0.704-1.547 1.269-2.528 1.685s-2.016 0.629-3.104 0.629c-1.067 0-2.080-0.203-3.051-0.608s-1.813-0.949-2.517-1.653c-0.704-0.693-1.269-1.536-1.685-2.507s-0.629-2.016-0.629-3.125zM10.475 15.211c0 0.885 0.181 1.589 0.555 2.123 0.373 0.523 0.939 0.789 1.696 0.789 0.768 0 1.333-0.267 1.717-0.789 0.373-0.523 0.565-1.227 0.576-2.123-0.011-0.896-0.203-1.6-0.576-2.133-0.373-0.523-0.949-0.789-1.717-0.789-0.757 0-1.323 0.267-1.696 0.789-0.373 0.533-0.555 1.237-0.555 2.133zM12.149 15.211v-0.373c0-0.085 0.011-0.203 0.021-0.352s0.021-0.267 0.053-0.341 0.053-0.171 0.096-0.256c0.043-0.085 0.096-0.16 0.16-0.192 0.075-0.043 0.149-0.064 0.245-0.064 0.149 0 0.267 0.043 0.352 0.128s0.149 0.224 0.181 0.405c0.032 0.192 0.053 0.341 0.064 0.48s0.011 0.32 0.011 0.555c0 0.245 0 0.427-0.011 0.555s-0.032 0.288-0.064 0.48c-0.032 0.181-0.096 0.32-0.181 0.405s-0.203 0.128-0.352 0.128c-0.096 0-0.171-0.021-0.245-0.064s-0.131-0.11-0.159-0.189l-0.001-0.003c-0.043-0.085-0.075-0.181-0.096-0.256-0.021-0.085-0.043-0.203-0.053-0.341-0.011-0.149-0.021-0.267-0.021-0.341v-0.363zM12.779 23.477h1.408l5.323-11.456h-1.44l-5.291 11.456zM17.365 20.288c0.011 0.896 0.213 1.6 0.587 2.133 0.373 0.523 0.949 0.789 1.707 0.789 0.768 0 1.333-0.267 1.707-0.789s0.555-1.237 0.565-2.133c-0.011-0.896-0.192-1.6-0.565-2.123s-0.939-0.789-1.707-0.789c-0.757 0-1.333 0.267-1.707 0.789-0.384 0.523-0.576 1.227-0.587 2.123zM19.040 20.288c0-0.245 0-0.427 0.011-0.555s0.032-0.288 0.064-0.48 0.096-0.32 0.181-0.405 0.203-0.128 0.352-0.128c0.096 0 0.181 0.021 0.256 0.064s0.128 0.107 0.171 0.203c0.043 0.096 0.075 0.181 0.107 0.256s0.043 0.192 0.053 0.341l0.011 0.341v0.736l-0.011 0.341-0.053 0.341-0.107 0.256-0.171 0.203-0.256 0.064c-0.149 0-0.267-0.043-0.352-0.128s-0.149-0.224-0.181-0.405c-0.032-0.192-0.053-0.352-0.064-0.48s-0.011-0.32-0.011-0.565z"></path>
</symbol>
<symbol id="icon-location" viewBox="0 0 32 32">
<path d="M16 2.001c-6.072 0.007-10.992 4.927-11 10.998v0.001c0 0.005 0 0.011 0 0.017 0 2.486 0.833 4.777 2.236 6.61l-0.019-0.026s0.3 0.395 0.348 0.45l8.435 9.95 8.439-9.953c0.044-0.053 0.345-0.447 0.345-0.447l0.001-0.004c1.383-1.806 2.216-4.098 2.216-6.583 0-0.005 0-0.009 0-0.014v0.001c-0.007-6.072-4.928-10.993-11-11h-0.001zM16 17c-2.209 0-4-1.791-4-4s1.791-4 4-4v0c2.209 0 4 1.791 4 4s-1.791 4-4 4v0z"></path>
</symbol>
<symbol id="icon-moon" viewBox="0 0 32 32">
<path stroke-linejoin="round" stroke-linecap="round" stroke-miterlimit="4" stroke-width="2.2857" d="M28 17.053c-0.584 6.134-5.71 10.893-11.947 10.893-6.627 0-11.998-5.372-11.998-11.998 0-6.237 4.759-11.363 10.845-11.944l0.048-0.004c-1.141 1.53-1.827 3.458-1.827 5.546 0 5.155 4.179 9.333 9.333 9.333 2.088 0 4.016-0.686 5.571-1.844l-0.025 0.018z"></path>
</symbol>
<symbol id="icon-open-book" viewBox="0 0 32 32">
<path stroke-linejoin="round" stroke-linecap="round" stroke-miterlimit="4" stroke-width="1.7778" d="M2.667 4h8c2.946 0 5.333 2.388 5.333 5.333v0 18.667c0-2.209-1.791-4-4-4v0h-9.333v-20zM29.333 4h-8c-2.946 0-5.333 2.388-5.333 5.333v0 18.667c0-2.209 1.791-4 4-4v0h9.333v-20z"></path>
</symbol>
<symbol id="icon-pressure" viewBox="0 0 32 32">
<path d="M16 12c-0.736 0-1.333 0.597-1.333 1.333v0 7.024c-0.803 0.47-1.333 1.328-1.333 2.309 0 1.473 1.194 2.667 2.667 2.667v0c1.473-0 2.667-1.194 2.667-2.667 0-0.982-0.531-1.84-1.321-2.303l-0.013-0.007v-7.024c0-0.736-0.597-1.333-1.333-1.333v0zM14.667 8c0-0.736 0.597-1.333 1.333-1.333s1.333 0.597 1.333 1.333v0c0 0.736-0.597 1.333-1.333 1.333s-1.333-0.597-1.333-1.333v0zM21.333 9.333c-0.736 0-1.333 0.597-1.333 1.333s0.597 1.333 1.333 1.333v0c0.736 0 1.333-0.597 1.333-1.333s-0.597-1.333-1.333-1.333v0zM8 17.333c-0.736 0-1.333-0.597-1.333-1.333s0.597-1.333 1.333-1.333v0c0.736 0 1.333 0.597 1.333 1.333s-0.597 1.333-1.333 1.333v0zM9.333 10.667c0 0.736 0.597 1.333 1.333 1.333s1.333-0.597 1.333-1.333v0c0-0.736-0.597-1.333-1.333-1.333s-1.333 0.597-1.333 1.333v0zM24 17.333c-0.736 0-1.333-0.597-1.333-1.333s0.597-1.333 1.333-1.333v0c0.736 0 1.333 0.597 1.333 1.333s-0.597 1.333-1.333 1.333v0z"></path>
<path d="M16 30.667c8.1 0 14.667-6.567 14.667-14.667s-6.567-14.667-14.667-14.667-14.667 6.567-14.667 14.667 6.567 14.667 14.667 14.667zM16 27.991c-6.622 0-11.991-5.368-11.991-11.991s5.368-11.991 11.991-11.991v0c6.622 0 11.991 5.368 11.991 11.991s-5.368 11.991-11.991 11.991v0z"></path>
</symbol>
<symbol id="icon-relevant" viewBox="0 0 32 32">
<path d="M22 26.59l-2.59-2.59-1.41 1.41 4 4 8-8-1.41-1.41-6.59 6.59z"></path>
<path d="M18 16c0 1.105-0.895 2-2 2s-2-0.895-2-2c0-1.105 0.895-2 2-2s2 0.895 2 2z"></path>
<path d="M16 22c-3.314 0-6-2.686-6-6s2.686-6 6-6c3.314 0 6 2.686 6 6v0c-0.004 3.312-2.688 5.996-6 6h-0zM16 12c-2.209 0-4 1.791-4 4s1.791 4 4 4c2.209 0 4-1.791 4-4v0c-0.003-2.208-1.792-3.997-4-4h-0z"></path>
<path d="M28 16c0-6.627-5.373-12-12-12s-12 5.373-12 12c0 6.627 5.373 12 12 12v0-2c-5.523 0-10-4.477-10-10s4.477-10 10-10c5.523 0 10 4.477 10 10v0z"></path>
</symbol>
<symbol id="icon-reset" viewBox="0 0 32 32">
<path d="M32 12h-12l4.485-4.485c-2.267-2.266-5.28-3.515-8.485-3.515s-6.219 1.248-8.485 3.515c-2.266 2.267-3.515 5.28-3.515 8.485s1.248 6.219 3.515 8.485c2.267 2.266 5.28 3.515 8.485 3.515s6.219-1.248 8.485-3.515c0.189-0.189 0.371-0.384 0.546-0.583l3.010 2.634c-2.933 3.349-7.239 5.464-12.041 5.464-8.837 0-16-7.163-16-16s7.163-16 16-16c4.418 0 8.418 1.791 11.313 4.687l4.687-4.687v12z"></path>
</symbol>
<symbol id="icon-search" viewBox="0 0 32 32">
<path d="M13.464 23.726c2.38-0.001 4.569-0.817 6.303-2.183l-0.022 0.017 5.64 5.64 1.814-1.814-5.64-5.638c1.351-1.714 2.166-3.904 2.166-6.285v-0c-0.007-5.665-4.598-10.255-10.262-10.262h-0.001c-5.666 0.006-10.257 4.597-10.264 10.262v0.001c0.006 5.666 4.598 10.258 10.263 10.264h0.001zM13.464 5.766c4.248 0.005 7.691 3.448 7.696 7.695v0.001c-0.005 4.249-3.447 7.692-7.695 7.698h-0.001c-4.249-0.005-7.692-3.447-7.698-7.695v-0.001c0.005-4.249 3.447-7.692 7.695-7.698h0.001z"></path>
</symbol>
<symbol id="icon-signout" viewBox="0 0 32 32">
<path d="M15.040 13.279c0 0.53 0.43 0.96 0.96 0.96s0.96-0.43 0.96-0.96h-1.92zM16.96 5.76c0-0.53-0.43-0.96-0.96-0.96s-0.96 0.43-0.96 0.96h1.92zM12.558 9.167c0.483-0.22 0.696-0.789 0.476-1.272s-0.789-0.696-1.272-0.476l0.796 1.747zM7.040 16.205l-0.96-0.005 0 0.016 0.96-0.011zM16 24.96l0.011-0.96c-0.007 0-0.015 0-0.022 0l0.011 0.96zM24.96 16.205l0.96 0.011-0-0.016-0.96 0.005zM20.238 7.419c-0.483-0.22-1.052-0.007-1.272 0.476s-0.007 1.052 0.476 1.272l0.796-1.747zM16.96 13.279v-7.519h-1.92v7.519h1.92zM11.762 7.419c-3.444 1.568-5.662 4.996-5.682 8.78l1.92 0.010c0.016-3.036 1.795-5.785 4.558-7.043l-0.796-1.747zM6.080 16.216c0.063 5.422 4.509 9.766 9.931 9.704l-0.022-1.92c-4.362 0.050-7.938-3.445-7.989-7.806l-1.92 0.022zM15.989 25.92c5.422 0.062 9.868-4.282 9.931-9.704l-1.92-0.022c-0.051 4.362-3.627 7.857-7.989 7.806l-0.022 1.92zM25.92 16.2c-0.020-3.784-2.238-7.212-5.682-8.78l-0.796 1.747c2.763 1.258 4.542 4.007 4.558 7.043l1.92-0.010z"></path>
</symbol>
<symbol id="icon-sun" viewBox="0 0 32 32">
<path stroke-linejoin="round" stroke-linecap="round" stroke-miterlimit="4" stroke-width="2.2857" d="M16 1.778v2.586M16 27.636v2.586M5.943 5.943l1.836 1.836M24.224 24.224l1.836 1.836M1.778 16h2.586M27.636 16h2.586M5.943 26.059l1.836-1.836M24.222 7.778l1.836-1.836M22.466 16c0 3.57-2.894 6.465-6.465 6.465s-6.465-2.894-6.465-6.465v0c0-3.57 2.894-6.465 6.465-6.465s6.465 2.894 6.465 6.465v0z"></path>
</symbol>
<symbol id="icon-time" viewBox="0 0 32 32">
<path d="M3.989 15.435c0-2.176 0.544-4.192 1.621-6.037s2.539-3.307 4.384-4.384 3.851-1.611 6.016-1.611c1.621 0 3.179 0.32 4.661 0.949s2.752 1.493 3.829 2.56 1.931 2.347 2.56 3.84 0.949 3.040 0.949 4.683c0 1.621-0.32 3.179-0.949 4.661s-1.493 2.763-2.56 3.829-2.347 1.92-3.829 2.549-3.029 0.949-4.661 0.949c-1.632 0-3.2-0.32-4.683-0.949s-2.763-1.493-3.84-2.56-1.92-2.347-2.56-3.819-0.939-3.029-0.939-4.661zM6.635 15.435c0 2.528 0.917 4.725 2.763 6.592 1.845 1.845 4.043 2.763 6.613 2.763 1.685 0 3.253-0.416 4.683-1.259s2.581-1.973 3.424-3.413 1.269-2.997 1.269-4.683-0.427-3.253-1.269-4.693-1.984-2.581-3.424-3.424-2.997-1.259-4.683-1.259-3.253 0.416-4.683 1.259-2.581 1.984-3.435 3.424-1.259 3.008-1.259 4.693zM15.083 15.435v-7.104c0-0.245 0.085-0.459 0.256-0.629s0.384-0.256 0.629-0.256 0.459 0.085 0.629 0.256 0.256 0.384 0.256 0.629v6.208h4.032c0.245 0 0.459 0.085 0.629 0.256s0.256 0.384 0.256 0.629c0 0.235-0.085 0.448-0.256 0.629s-0.384 0.267-0.629 0.267h-4.736c-0.032 0.011-0.096 0.011-0.192 0.011-0.005 0-0.010 0-0.016 0-0.475 0-0.86-0.385-0.86-0.86 0-0.013 0-0.026 0.001-0.038l-0 0.002z"></path>
</symbol>
<symbol id="icon-triangle-down" viewBox="0 0 32 32">
<path d="M13.965 25.272l-8-12.8c-0.229-0.361-0.365-0.801-0.365-1.272 0-1.325 1.075-2.4 2.4-2.4 0 0 0 0 0 0h16c0 0 0 0 0 0 1.325 0 2.4 1.075 2.4 2.4 0 0.471-0.136 0.911-0.371 1.282l0.006-0.010-8 12.8c-0.431 0.682-1.181 1.128-2.035 1.128s-1.604-0.446-2.029-1.118l-0.006-0.010z"></path>
</symbol>
<symbol id="icon-triangle-up" viewBox="0 0 32 32">
<path d="M18.035 8.328l8 12.8c0.229 0.361 0.365 0.801 0.365 1.272 0 1.325-1.075 2.4-2.4 2.4 0 0 0 0 0 0h-16c0 0 0 0 0 0-1.325 0-2.4-1.075-2.4-2.4 0-0.471 0.136-0.911 0.371-1.282l-0.006 0.010 8-12.8c0.431-0.682 1.181-1.128 2.035-1.128s1.604 0.446 2.029 1.118l0.006 0.010z"></path>
</symbol>
<symbol id="icon-weather-wind" viewBox="0 0 32 32">
<path d="M26.938 12c-1.656 0-3 1.344-3 3 0 0.353 0.073 0.685 0.184 1h-19.184c-0.552 0-1 0.448-1 1s0.448 1 1 1h22c1.656 0 3-1.344 3-3s-1.344-3-3-3zM4.938 14h12c1.656 0 3-1.344 3-3s-1.344-3-3-3-3 1.344-3 3c0 0.353 0.073 0.685 0.184 1h-9.184c-0.552 0-1 0.448-1 1s0.448 1 1 1zM20.938 20c-0.059 0-0.115 0.013-0.174 0.018-0.039-0.003-0.072-0.018-0.111-0.018h-15.428c-0.711 0-1.287 0.448-1.287 1s0.576 1 1.287 1h12.897c-0.111 0.315-0.184 0.648-0.184 1 0 1.656 1.344 3 3 3s3-1.344 3-3-1.344-3-3-3z">
</symbol>
</defs>
</svg>
