<svg aria-hidden="true" style="position: absolute; width: 0; height: 0; overflow: hidden;" version="1.1" xmlns="http://www.w3.org/2000/svg" xmlns:xlink="http://www.w3.org/1999/xlink">
<defs>

<symbol id="icon-arrow-down" viewBox="0 0 32 32">
<path d="M3.76 9.143l-3.76 3.479 16 14.807 16-14.807-3.76-3.479-12.24 11.303-12.24-11.303z"></path>
</symbol>
<symbol id="icon-arrow-left" viewBox="0 0 32 32">
<path d="M14.437 16l6.6 6.6-1.885 1.885-8.485-8.485 8.485-8.485 1.885 1.885-6.6 6.6z"></path>
</symbol>
<symbol id="icon-arrow-right" viewBox="0 0 32 32">
<path stroke-linejoin="round" stroke-linecap="round" stroke-miterlimit="4" stroke-width="2.6667" d="M12 24l8-8-8-8"></path>
</symbol>
<symbol id="icon-arrow-up" viewBox="0 0 32 32">
<path d="M4.576 22.4l-3.509-3.247 14.933-13.82 14.933 13.82-3.509 3.247-11.424-10.549-11.424 10.549z"></path>
</symbol>
<symbol id="icon-auth" viewBox="0 0 32 32">
<path d="M17.014 20.051c-0.539 0.539-0.539 1.417 0 1.958 0.261 0.261 0.608 0.405 0.978 0.405s0.717-0.143 0.979-0.405l5.034-5.033c0.125-0.128 0.224-0.277 0.298-0.453 0.065-0.155 0.103-0.334 0.103-0.523v-0c0-0.178-0.035-0.354-0.108-0.536-0.074-0.172-0.174-0.319-0.298-0.443l-5.030-5.030c-0.249-0.25-0.594-0.405-0.975-0.405-0.002 0-0.003 0-0.005 0h0c-0.001 0-0.003 0-0.005 0-0.381 0-0.725 0.155-0.974 0.405l-0 0c-0.54 0.54-0.54 1.418 0 1.958l2.667 2.667h-18.297c-0.763 0-1.384 0.621-1.384 1.384s0.621 1.384 1.384 1.384h18.297l-2.667 2.667z"></path>
<path d="M27.387 3.607h-15.561c-2.544 0-4.614 2.069-4.614 4.613l0.003 4.893h0.277c0.253 0.338 0.656 0.559 1.105 0.559 0.462 0 0.868-0.221 1.118-0.565l0.266-0.004v-4.883c0-1.016 0.828-1.844 1.845-1.844h15.561c1.017 0 1.845 0.828 1.845 1.844v15.562c0 1.017-0.828 1.844-1.845 1.844h-15.561c-1.017 0-1.845-0.827-1.845-1.844l-0.002-4.895h-0.278c-0.253-0.338-0.656-0.557-1.105-0.557-0.452 0-0.857 0.223-1.11 0.565l-0.275 0.004v4.883c0 2.543 2.069 4.612 4.614 4.612h15.562c2.544 0 4.613-2.069 4.613-4.612v-15.562c0-2.543-2.069-4.612-4.613-4.612z"></path>
</symbol>
<symbol id="icon-burger-menu" viewBox="0 0 32 32">
<path stroke-linejoin="round" stroke-linecap="round" stroke-miterlimit="4" stroke-width="2.6667" d="M4 16h24M4 8h24M4 24h24"></path>
</symbol>
<symbol id="icon-calendar" viewBox="0 0 32 32">
<path d="M22.666 4h5.334c0.736 0 1.333 0.597 1.333 1.333v0 21.334c0 0.736-0.597 1.333-1.333 1.333v0h-24c-0.736-0.001-1.332-0.597-1.333-1.333v-21.335c0-0.736 0.597-1.333 1.333-1.333v0h5.333v-2.667h2.667v2.667h8v-2.667h2.666v2.667zM26.666 14.667h-21.333v10.666h21.333v-10.666zM20 6.667h-8v2.666h-2.667v-2.666h-4v5.333h21.334v-5.333h-4v2.666h-2.667v-2.666zM8 17.333h2.667v2.667h-2.667v-2.667zM14.666 17.333h2.667v2.667h-2.667v-2.667zM21.333 17.333h2.667v2.667h-2.667v-2.667z"></path>
</symbol>
<symbol id="icon-check" viewBox="0 0 32 32">
<path d="M28.779 6.389c-0.288 0.009-0.546 0.131-0.732 0.323l-16.313 16.313-6.713-6.713c-0.194-0.197-0.463-0.319-0.761-0.319-0.589 0-1.067 0.478-1.067 1.067 0 0.297 0.122 0.566 0.318 0.76l7.467 7.467c0.193 0.193 0.46 0.313 0.755 0.313s0.562-0.12 0.755-0.313v0l17.067-17.067c0.199-0.194 0.323-0.465 0.323-0.765 0-0.589-0.478-1.067-1.067-1.067-0.011 0-0.022 0-0.033 0l0.002-0z"></path>
</symbol>
<symbol id="icon-close" viewBox="0 0 32 32">
<path stroke-linejoin="round" stroke-linecap="round" stroke-miterlimit="4" stroke-width="2.6667" d="M24 8l-16 16M8 8l16 16"></path>
</symbol>
<symbol id="icon-eject" viewBox="0 0 32 32">
<path d="M5.573 17.903c-0.151 0.213-0.241 0.478-0.241 0.764 0 0.736 0.597 1.333 1.333 1.333 0 0 0 0 0.001 0h18.667c0 0 0 0 0.001 0 0.736 0 1.333-0.597 1.333-1.333 0-0.286-0.090-0.551-0.243-0.768l0.003 0.004-9.333-13.333c-0.244-0.347-0.643-0.57-1.093-0.57s-0.849 0.224-1.091 0.566l-0.003 0.004-9.333 13.333zM5.333 25.6c0 1.325 1.075 2.4 2.4 2.4v0h16.533c1.325 0 2.4-1.075 2.4-2.4v0-0.533c0-1.325-1.075-2.4-2.4-2.4v0h-16.533c-1.325 0-2.4 1.075-2.4 2.4v0 0.533z"></path>
</symbol>
<symbol id="icon-filled-heart" viewBox="0 0 32 32">
<path d="M9.334 4c-3.682 0-6.668 2.954-6.668 6.6 0 2.942 1.168 9.926 12.652 16.986 0.194 0.12 0.43 0.191 0.682 0.191s0.488-0.071 0.688-0.194l-0.006 0.003c11.484-7.060 12.652-14.044 12.652-16.986 0-3.646-2.986-6.6-6.668-6.6-3.68 0-6.666 4-6.666 4s-2.986-4-6.666-4z"></path>
</symbol>
<symbol id="icon-heart" viewBox="0 0 32 32">
<path stroke-linejoin="round" stroke-linecap="round" stroke-miterlimit="4" stroke-width="2" d="M9.334 4c-3.682 0-6.668 2.954-6.668 6.6 0 2.942 1.168 9.926 12.652 16.986 0.194 0.12 0.43 0.191 0.682 0.191s0.488-0.071 0.688-0.194l-0.006 0.003c11.484-7.060 12.652-14.044 12.652-16.986 0-3.646-2.986-6.6-6.668-6.6-3.68 0-6.666 4-6.666 4s-2.986-4-6.666-4z"></path>
</symbol>
<symbol id="icon-heart-menu" viewBox="0 0 32 32">
<path stroke-linejoin="round" stroke-linecap="round" stroke-miterlimit="4" stroke-width="1.7778" d="M27.787 6.146c-1.327-1.328-3.161-2.149-5.187-2.149s-3.859 0.821-5.187 2.149l-1.413 1.413-1.413-1.413c-1.325-1.315-3.151-2.128-5.166-2.128-4.051 0-7.335 3.284-7.335 7.335 0 2.015 0.813 3.841 2.128 5.167l11.786 11.786 11.787-11.787c1.328-1.327 2.149-3.161 2.149-5.187s-0.821-3.859-2.149-5.187l-0-0z"></path>
</symbol>
<symbol id="icon-home" viewBox="0 0 32 32">
<path stroke-linejoin="round" stroke-linecap="round" stroke-miterlimit="4" stroke-width="1.7778" d="M4 12l12-9.333 12 9.333v14.667c0 1.473-1.194 2.667-2.667 2.667v0h-18.667c-1.473 0-2.667-1.194-2.667-2.667v0-14.667z"></path>
<path stroke-linejoin="round" stroke-linecap="round" stroke-miterlimit="4" stroke-width="1.7778" d="M12 29.333v-13.333h8v13.333"></path>
</symbol>
<symbol id="icon-location" viewBox="0 0 32 32">
<path d="M16 2.001c-6.072 0.007-10.992 4.927-11 10.998v0.001c0 0.005 0 0.011 0 0.017 0 2.486 0.833 4.777 2.236 6.61l-0.019-0.026s0.3 0.395 0.348 0.45l8.435 9.95 8.439-9.953c0.044-0.053 0.345-0.447 0.345-0.447l0.001-0.004c1.383-1.806 2.216-4.098 2.216-6.583 0-0.005 0-0.009 0-0.014v0.001c-0.007-6.072-4.928-10.993-11-11h-0.001zM16 17c-2.209 0-4-1.791-4-4s1.791-4 4-4v0c2.209 0 4 1.791 4 4s-1.791 4-4 4v0z"></path>
</symbol>
<symbol id="icon-moon" viewBox="0 0 32 32">
<path stroke-linejoin="round" stroke-linecap="round" stroke-miterlimit="4" stroke-width="2.2857" d="M28 17.053c-0.584 6.134-5.71 10.893-11.947 10.893-6.627 0-11.998-5.372-11.998-11.998 0-6.237 4.759-11.363 10.845-11.944l0.048-0.004c-1.141 1.53-1.827 3.458-1.827 5.546 0 5.155 4.179 9.333 9.333 9.333 2.088 0 4.016-0.686 5.571-1.844l-0.025 0.018z"></path>
</symbol>
<symbol id="icon-open-book" viewBox="0 0 32 32">
<path stroke-linejoin="round" stroke-linecap="round" stroke-miterlimit="4" stroke-width="1.7778" d="M2.667 4h8c2.946 0 5.333 2.388 5.333 5.333v0 18.667c0-2.209-1.791-4-4-4v0h-9.333v-20zM29.333 4h-8c-2.946 0-5.333 2.388-5.333 5.333v0 18.667c0-2.209 1.791-4 4-4v0h9.333v-20z"></path>
</symbol>
<symbol id="icon-reset" viewBox="0 0 32 32">
<path d="M32 12h-12l4.485-4.485c-2.267-2.266-5.28-3.515-8.485-3.515s-6.219 1.248-8.485 3.515c-2.266 2.267-3.515 5.28-3.515 8.485s1.248 6.219 3.515 8.485c2.267 2.266 5.28 3.515 8.485 3.515s6.219-1.248 8.485-3.515c0.189-0.189 0.371-0.384 0.546-0.583l3.010 2.634c-2.933 3.349-7.239 5.464-12.041 5.464-8.837 0-16-7.163-16-16s7.163-16 16-16c4.418 0 8.418 1.791 11.313 4.687l4.687-4.687v12z"></path>
</symbol>
<symbol id="icon-search" viewBox="0 0 32 32">
<path d="M13.464 23.726c2.38-0.001 4.569-0.817 6.303-2.183l-0.022 0.017 5.64 5.64 1.814-1.814-5.64-5.638c1.351-1.714 2.166-3.904 2.166-6.285v-0c-0.007-5.665-4.598-10.255-10.262-10.262h-0.001c-5.666 0.006-10.257 4.597-10.264 10.262v0.001c0.006 5.666 4.598 10.258 10.263 10.264h0.001zM13.464 5.766c4.248 0.005 7.691 3.448 7.696 7.695v0.001c-0.005 4.249-3.447 7.692-7.695 7.698h-0.001c-4.249-0.005-7.692-3.447-7.698-7.695v-0.001c0.005-4.249 3.447-7.692 7.695-7.698h0.001z"></path>
</symbol>
<symbol id="icon-sun" viewBox="0 0 32 32">
<path stroke-linejoin="round" stroke-linecap="round" stroke-miterlimit="4" stroke-width="2.2857" d="M16 1.778v2.586M16 27.636v2.586M5.943 5.943l1.836 1.836M24.224 24.224l1.836 1.836M1.778 16h2.586M27.636 16h2.586M5.943 26.059l1.836-1.836M24.222 7.778l1.836-1.836M22.466 16c0 3.57-2.894 6.465-6.465 6.465s-6.465-2.894-6.465-6.465v0c0-3.57 2.894-6.465 6.465-6.465s6.465 2.894 6.465 6.465v0z"></path>
</symbol>
<symbol id="icon-triangle-down" viewBox="0 0 32 32">
<path d="M13.965 25.272l-8-12.8c-0.229-0.361-0.365-0.801-0.365-1.272 0-1.325 1.075-2.4 2.4-2.4 0 0 0 0 0 0h16c0 0 0 0 0 0 1.325 0 2.4 1.075 2.4 2.4 0 0.471-0.136 0.911-0.371 1.282l0.006-0.010-8 12.8c-0.431 0.682-1.181 1.128-2.035 1.128s-1.604-0.446-2.029-1.118l-0.006-0.010z"></path>
</symbol>
<symbol id="icon-triangle-up" viewBox="0 0 32 32">
<path d="M18.035 8.328l8 12.8c0.229 0.361 0.365 0.801 0.365 1.272 0 1.325-1.075 2.4-2.4 2.4 0 0 0 0 0 0h-16c0 0 0 0 0 0-1.325 0-2.4-1.075-2.4-2.4 0-0.471 0.136-0.911 0.371-1.282l-0.006 0.010 8-12.8c0.431-0.682 1.181-1.128 2.035-1.128s1.604 0.446 2.029 1.118l0.006 0.010z"></path>
</symbol>
<symbol id="icon-weather-location" viewBox='0 0 19 25'>
<path d='M9.50001 0.6875C7.03936 0.690403 4.68032 1.66918 2.94038 3.40912C1.20044 5.14906 0.221663 7.5081 0.21876 9.96875C0.215813 11.9796 0.87265 13.9359 2.08851 15.5375C2.08851 15.5375 2.34163 15.8708 2.38298 15.9189L9.50001 24.3125L16.6204 15.9147C16.6575 15.8699 16.9115 15.5375 16.9115 15.5375L16.9124 15.535C18.1276 13.934 18.7841 11.9787 18.7813 9.96875C18.7784 7.5081 17.7996 5.14906 16.0596 3.40912C14.3197 1.66918 11.9607 0.690403 9.50001 0.6875ZM9.50001 13.3438C8.8325 13.3438 8.17998 13.1458 7.62496 12.775C7.06994 12.4041 6.63736 11.877 6.38192 11.2603C6.12647 10.6436 6.05963 9.96501 6.18986 9.31032C6.32008 8.65563 6.64152 8.05427 7.11352 7.58226C7.58553 7.11026 8.18689 6.78882 8.84158 6.6586C9.49627 6.52837 10.1749 6.59521 10.7916 6.85066C11.4083 7.1061 11.9354 7.53868 12.3062 8.0937C12.6771 8.64872 12.875 9.30124 12.875 9.96875C12.8739 10.8635 12.518 11.7213 11.8853 12.354C11.2526 12.9867 10.3948 13.3426 9.50001 13.3438Z' />
</symbol>
<symbol id="icon-weather-wind" viewBox="0 0 32 32">
<path d="M26.938 12c-1.656 0-3 1.344-3 3 0 0.353 0.073 0.685 0.184 1h-19.184c-0.552 0-1 0.448-1 1s0.448 1 1 1h22c1.656 0 3-1.344 3-3s-1.344-3-3-3zM4.938 14h12c1.656 0 3-1.344 3-3s-1.344-3-3-3-3 1.344-3 3c0 0.353 0.073 0.685 0.184 1h-9.184c-0.552 0-1 0.448-1 1s0.448 1 1 1zM20.938 20c-0.059 0-0.115 0.013-0.174 0.018-0.039-0.003-0.072-0.018-0.111-0.018h-15.428c-0.711 0-1.287 0.448-1.287 1s0.576 1 1.287 1h12.897c-0.111 0.315-0.184 0.648-0.184 1 0 1.656 1.344 3 3 3s3-1.344 3-3-1.344-3-3-3z">
</symbol>
<symbol id='icon-weather-pressure' viewBox='0 0 32 32'>
<path d="M720 870 l0 -30 60 0 60 0 0 -30 c0 -27 -3 -30 -30 -30 -27 0 -30 -3
-30 -30 0 -27 3 -30 30 -30 27 0 30 -3 30 -30 0 -27 -3 -30 -30 -30 -27 0 -30
-3 -30 -30 0 -27 3 -30 30 -30 27 0 30 -3 30 -30 0 -27 -3 -30 -30 -30 -27 0
-30 -3 -30 -30 0 -27 3 -30 30 -30 27 0 30 -3 30 -30 0 -27 -3 -30 -30 -30
-27 0 -30 -3 -30 -30 0 -27 3 -30 30 -30 27 0 30 -3 30 -30 0 -27 -3 -30 -30
-30 -27 0 -30 -3 -30 -30 0 -27 3 -30 30 -30 27 0 30 -3 30 -30 l0 -30 -60 0
-60 0 0 -30 0 -30 90 0 90 0 0 390 0 390 -90 0 -90 0 0 -30z"/>
<path d="M236 769 c-4 -50 -20 -107 -52 -187 -30 -75 -49 -143 -56 -198 l-12
-83 -52 -3 -53 -3 69 -71 70 -72 70 72 69 71 -55 3 -56 3 7 62 c4 34 18 92 31
130 13 37 35 98 49 136 13 38 28 101 31 140 l7 71 -30 0 c-30 0 -30 0 -37 -71z"/>
<path d="M596 769 c-4 -50 -20 -107 -52 -187 -30 -75 -49 -143 -56 -198 l-12
-83 -52 -3 -53 -3 69 -71 70 -72 70 72 69 71 -55 3 -56 3 7 62 c4 34 18 92 31
130 13 37 35 98 49 136 13 38 28 101 31 140 l7 71 -30 0 c-30 0 -30 0 -37 -71z"/>
</symbol>
</defs>
</svg>
