<svg  style="position: absolute; overflow: hidden" version="1.1" xmlns="http://www.w3.org/2000/svg" xmlns:svg="http://www.w3.org/2000/svg" xmlns:xlink="http://www.w3.org/1999/xlink">
<defs>
<symbol id="icon-account" viewBox="0 0 32 32" >
<path  d="M32 15.984c0-8.824-7.168-15.984-16-15.984s-16 7.16-16 15.984c0 4.86 2.208 9.24 5.664 12.18 0.032 0.032 0.064 0.032 0.064 0.064 0.288 0.224 0.576 0.448 0.896 0.672 0.16 0.096 0.288 0.222 0.448 0.35 2.51 1.722 5.613 2.75 8.956 2.75 0.001 0 0.003 0 0.004 0h-0c0.001 0 0.002 0 0.004 0 3.343 0 6.447-1.028 9.011-2.785l-0.054 0.035c0.16-0.096 0.288-0.222 0.448-0.32 0.288-0.222 0.608-0.446 0.896-0.67 0.032-0.032 0.064-0.032 0.064-0.064 3.392-2.974 5.6-7.352 5.6-12.212zM16 29.986c-3.008 0-5.76-0.96-8.032-2.558 0.032-0.256 0.096-0.51 0.16-0.766 0.21-0.754 0.494-1.412 0.853-2.021l-0.021 0.039c0.352-0.608 0.768-1.152 1.28-1.632 0.48-0.48 1.056-0.926 1.632-1.278 0.608-0.352 1.248-0.608 1.952-0.8 0.648-0.182 1.392-0.286 2.16-0.286 0.006 0 0.011 0 0.017 0h-0.001c0.018-0 0.038-0 0.059-0 2.251 0 4.295 0.889 5.799 2.335l-0.003-0.003c0.736 0.736 1.312 1.6 1.728 2.59 0.224 0.576 0.384 1.184 0.48 1.822-2.246 1.596-5.043 2.553-8.063 2.558h-0.001zM11.104 15.186c-0.263-0.587-0.416-1.272-0.416-1.993 0-0.019 0-0.038 0-0.058l-0 0.003c0-0.702 0.128-1.406 0.416-2.046s0.672-1.214 1.152-1.694c0.48-0.48 1.056-0.862 1.696-1.15s1.344-0.416 2.048-0.416c0.736 0 1.408 0.128 2.048 0.416s1.216 0.672 1.696 1.15c0.48 0.48 0.864 1.056 1.152 1.694 0.288 0.64 0.416 1.344 0.416 2.046 0 0.736-0.128 1.408-0.416 2.046-0.294 0.657-0.681 1.218-1.153 1.697l0.001-0.001c-0.478 0.47-1.039 0.857-1.66 1.136l-0.036 0.014c-0.61 0.258-1.32 0.408-2.064 0.408s-1.454-0.15-2.1-0.421l0.036 0.013c-0.657-0.293-1.218-0.68-1.697-1.151l0.001 0.001c-0.472-0.471-0.851-1.035-1.108-1.662l-0.012-0.034zM25.952 25.798c0-0.064-0.032-0.096-0.032-0.16-0.342-1.072-0.81-2.004-1.398-2.846l0.022 0.034c-0.61-0.88-1.33-1.63-2.152-2.252l-0.024-0.018c-0.602-0.457-1.286-0.864-2.014-1.19l-0.066-0.026c0.349-0.232 0.652-0.484 0.927-0.765l0.001-0.001c0.467-0.461 0.879-0.975 1.227-1.533l0.021-0.035c0.663-1.074 1.057-2.375 1.057-3.768 0-0.035-0-0.070-0.001-0.105l0 0.005c0-0.022 0-0.047 0-0.073 0-1.035-0.212-2.021-0.595-2.916l0.018 0.048c-0.406-0.932-0.956-1.728-1.631-2.397l-0-0c-0.673-0.662-1.469-1.201-2.35-1.581l-0.050-0.019c-0.847-0.363-1.832-0.574-2.867-0.574-0.027 0-0.054 0-0.082 0l0.004-0c-0.022-0-0.047-0-0.073-0-1.036 0-2.023 0.212-2.92 0.595l0.049-0.018c-0.936 0.397-1.734 0.948-2.399 1.629l-0.001 0.001c-0.662 0.672-1.201 1.468-1.581 2.348l-0.019 0.050c-0.364 0.847-0.576 1.832-0.576 2.867 0 0.026 0 0.051 0 0.077l-0-0.004c0 0.704 0.096 1.376 0.288 2.014 0.192 0.672 0.448 1.28 0.8 1.854 0.32 0.576 0.768 1.088 1.248 1.568 0.288 0.288 0.608 0.542 0.96 0.766-0.794 0.36-1.477 0.777-2.103 1.265l0.023-0.017c-0.832 0.64-1.568 1.406-2.176 2.238-0.573 0.807-1.042 1.74-1.357 2.741l-0.019 0.071c-0.032 0.064-0.032 0.128-0.032 0.16-2.528-2.558-4.096-6.010-4.096-9.846 0-7.704 6.304-14.002 14.016-14.002s14.016 6.298 14.016 14.002c-0.005 3.832-1.556 7.3-4.064 9.814l0-0z"></path>
</symbol>
<symbol id="icon-apple" viewBox="0 0 32 32">
<path d="M29.75 23.475c-0.75 1.663-1.113 2.413-2.075 3.875-1.35 2.050-3.25 4.613-5.613 4.637-2.1 0.025-2.637-1.363-5.475-1.35s-3.438 1.375-5.537 1.35c-2.362-0.025-4.162-2.337-5.513-4.387-3.775-5.75-4.175-12.488-1.837-16.075 1.65-2.55 4.262-4.037 6.725-4.037 2.5 0 4.063 1.375 6.138 1.375 2 0 3.225-1.375 6.113-1.375 2.188 0 4.5 1.188 6.15 3.25-5.413 2.963-4.538 10.675 0.925 12.737zM20.475 5.2c1.050-1.35 1.85-3.25 1.563-5.2-1.712 0.113-3.725 1.212-4.887 2.638-1.063 1.288-1.938 3.2-1.6 5.063 1.862 0.063 3.8-1.063 4.925-2.5z"></path>
</symbol>
<symbol id="icon-archive" viewBox="0 0 32 32">
<path d="M25.067 19.2c-3.529 0-6.4 2.871-6.4 6.4s2.871 6.4 6.4 6.4 6.4-2.871 6.4-6.4-2.871-6.4-6.4-6.4zM25.067 30.933c-2.941 0-5.333-2.393-5.333-5.333s2.393-5.333 5.333-5.333 5.333 2.393 5.333 5.333-2.393 5.333-5.333 5.333z"></path>
<path d="M28.267 25.067h-2.667v-2.667c0-0.295-0.239-0.533-0.533-0.533s-0.533 0.239-0.533 0.533v0 3.2c0 0.295 0.239 0.533 0.533 0.533v0h3.2c0.295 0 0.533-0.239 0.533-0.533s-0.239-0.533-0.533-0.533v0zM12.003 9.6h5.861c1.032-0.001 1.868-0.837 1.869-1.869v-0.797c0-0.295-0.239-0.533-0.533-0.533s-0.533 0.239-0.533 0.533v0 0.797c0 0.443-0.36 0.803-0.803 0.803h-5.861c-0.443 0-0.803-0.36-0.803-0.803v-0.797c0-0.295-0.239-0.533-0.533-0.533s-0.533 0.239-0.533 0.533v0 0.797c0.001 1.032 0.837 1.868 1.869 1.869h0zM10.667 21.867c-0.295 0-0.533 0.239-0.533 0.533v0 0.797c0.001 1.032 0.837 1.868 1.869 1.869h3.997c0.295 0 0.533-0.239 0.533-0.533s-0.239-0.533-0.533-0.533v0h-3.997c-0.443 0-0.803-0.36-0.803-0.803v-0.797c0-0.295-0.239-0.533-0.533-0.533v0z"></path>
<path d="M17.6 30.933h-15.556c-0.245-0-0.443-0.199-0.444-0.444v-13.956h26.667v1.067c0 0.295 0.239 0.533 0.533 0.533s0.533-0.239 0.533-0.533v0-16.090c-0.001-0.834-0.677-1.509-1.51-1.51h-25.779c-0.834 0.001-1.509 0.677-1.51 1.51v28.979c0.001 0.834 0.677 1.509 1.51 1.51h15.556c0.295 0 0.533-0.239 0.533-0.533s-0.239-0.533-0.533-0.533v0zM2.044 1.067h25.779c0.245 0 0.444 0.199 0.444 0.444v13.956h-26.667v-13.956c0-0.245 0.199-0.444 0.444-0.444z"></path>
</symbol>
<symbol id="icon-arrow" viewBox="0 0 32 32">
<path d="M3.76 9.143l-3.76 3.479 16 14.807 16-14.807-3.76-3.479-12.24 11.303-12.24-11.303z"></path>
</symbol>
<symbol id="icon-arrow-right" viewBox="0 0 32 32">
<path d="M21.753 22.224c-0.241 0.241-0.39 0.575-0.39 0.943 0 0.737 0.597 1.334 1.334 1.334 0.368 0 0.702-0.149 0.943-0.391l6.22-6.22c0.483-0.483 0.781-1.149 0.781-1.886s-0.299-1.403-0.781-1.886l-6.224-6.224c-0.241-0.242-0.575-0.391-0.943-0.391-0.737 0-1.334 0.597-1.334 1.334 0 0.368 0.149 0.701 0.39 0.943l4.888 4.888h-23.971c-0.736 0-1.333 0.597-1.333 1.333s0.597 1.333 1.333 1.333v0h23.977l-4.891 4.891z"></path>
</symbol>
<symbol id="icon-auth" viewBox="0 0 32 32">
<path d="M17.014 20.051c-0.539 0.539-0.539 1.417 0 1.958 0.261 0.261 0.608 0.405 0.978 0.405s0.717-0.143 0.979-0.405l5.034-5.033c0.125-0.128 0.224-0.277 0.298-0.453 0.065-0.155 0.103-0.334 0.103-0.523v-0c0-0.178-0.035-0.354-0.108-0.536-0.074-0.172-0.174-0.319-0.298-0.443l-5.030-5.030c-0.249-0.25-0.594-0.405-0.975-0.405-0.002 0-0.003 0-0.005 0h0c-0.001 0-0.003 0-0.005 0-0.381 0-0.725 0.155-0.974 0.405l-0 0c-0.54 0.54-0.54 1.418 0 1.958l2.667 2.667h-18.297c-0.763 0-1.384 0.621-1.384 1.384s0.621 1.384 1.384 1.384h18.297l-2.667 2.667z"></path>
<path d="M27.387 3.607h-15.561c-2.544 0-4.614 2.069-4.614 4.613l0.003 4.893h0.277c0.253 0.338 0.656 0.559 1.105 0.559 0.462 0 0.868-0.221 1.118-0.565l0.266-0.004v-4.883c0-1.016 0.828-1.844 1.845-1.844h15.561c1.017 0 1.845 0.828 1.845 1.844v15.562c0 1.017-0.828 1.844-1.845 1.844h-15.561c-1.017 0-1.845-0.827-1.845-1.844l-0.002-4.895h-0.278c-0.253-0.338-0.656-0.557-1.105-0.557-0.452 0-0.857 0.223-1.11 0.565l-0.275 0.004v4.883c0 2.543 2.069 4.612 4.614 4.612h15.562c2.544 0 4.613-2.069 4.613-4.612v-15.562c0-2.543-2.069-4.612-4.613-4.612z"></path>
</symbol>
<symbol id="icon-burger-menu" viewBox="0 0 32 32">
<path stroke-linejoin="round" stroke-linecap="round" stroke-miterlimit="4" stroke-width="2.6667" d="M4 16h24M4 8h24M4 24h24"></path>
</symbol>
<symbol id="icon-calendar" viewBox="0 0 32 32">
<path d="M22.666 4h5.334c0.736 0 1.333 0.597 1.333 1.333v0 21.334c0 0.736-0.597 1.333-1.333 1.333v0h-24c-0.736-0.001-1.332-0.597-1.333-1.333v-21.335c0-0.736 0.597-1.333 1.333-1.333v0h5.333v-2.667h2.667v2.667h8v-2.667h2.666v2.667zM26.666 14.667h-21.333v10.666h21.333v-10.666zM20 6.667h-8v2.666h-2.667v-2.666h-4v5.333h21.334v-5.333h-4v2.666h-2.667v-2.666zM8 17.333h2.667v2.667h-2.667v-2.667zM14.666 17.333h2.667v2.667h-2.667v-2.667zM21.333 17.333h2.667v2.667h-2.667v-2.667z"></path>
</symbol>
<symbol id="icon-check" viewBox="0 0 32 32">
<path d="M28.779 6.389c-0.288 0.009-0.546 0.131-0.732 0.323l-16.313 16.313-6.713-6.713c-0.194-0.197-0.463-0.319-0.761-0.319-0.589 0-1.067 0.478-1.067 1.067 0 0.297 0.122 0.566 0.318 0.76l7.467 7.467c0.193 0.193 0.46 0.313 0.755 0.313s0.562-0.12 0.755-0.313v0l17.067-17.067c0.199-0.194 0.323-0.465 0.323-0.765 0-0.589-0.478-1.067-1.067-1.067-0.011 0-0.022 0-0.033 0l0.002-0z"></path>
</symbol>
<symbol id="icon-close" viewBox="0 0 32 32">
<path stroke-linejoin="round" stroke-linecap="round" stroke-miterlimit="4" stroke-width="2.6667" d="M24 8l-16 16M8 8l16 16"></path>
</symbol>
<symbol id="icon-date-sort" viewBox="0 0 32 32">
<path d="M29.938 13.689h-1.493v12.978h-24.889v-19.556h2.667v-1.778h-2.889c-0.862 0.015-1.556 0.717-1.556 1.582 0 0.009 0 0.019 0 0.028l-0-0.001v19.893c-0 0.008-0 0.017-0 0.027 0 0.865 0.693 1.567 1.554 1.582l0.001 0h25.333c0.862-0.015 1.556-0.717 1.556-1.582 0-0.009-0-0.019-0-0.028l0 0.001v-13.164z"></path>
<path d="M7.111 12.444h1.778v1.778h-1.778z"></path>
<path d="M12.444 12.444h1.778v1.778h-1.778z"></path>
<path d="M7.111 16.889h1.778v1.778h-1.778z"></path>
<path d="M12.444 16.889h1.778v1.778h-1.778z"></path>
<path d="M17.778 16.889h1.778v1.778h-1.778z"></path>
<path d="M23.111 16.889h1.778v1.778h-1.778z"></path>
<path d="M7.111 21.333h1.778v1.778h-1.778z"></path>
<path d="M12.444 21.333h1.778v1.778h-1.778z"></path>
<path d="M17.778 21.333h1.778v1.778h-1.778z"></path>
<path d="M23.111 21.333h1.778v1.778h-1.778z"></path>
<path d="M8.889 8.889c0.491 0 0.889-0.398 0.889-0.889v0-5.333c0-0.491-0.398-0.889-0.889-0.889s-0.889 0.398-0.889 0.889v0 5.333c0 0.491 0.398 0.889 0.889 0.889v0z"></path>
<path d="M23.867 1.013l-5.084 8.764c-0.124 0.179-0.198 0.401-0.198 0.641 0 0.628 0.509 1.138 1.138 1.138 0.013 0 0.026-0 0.039-0.001l-0.002 0h10.178c0.011 0 0.024 0.001 0.038 0.001 0.628 0 1.138-0.509 1.138-1.138 0-0.239-0.074-0.461-0.2-0.644l0.003 0.004-5.084-8.764c-0.201-0.339-0.566-0.564-0.982-0.564s-0.781 0.224-0.979 0.558l-0.003 0.005z"></path>
</symbol>
<symbol id="icon-development" viewBox="0 0 32 32">
<path d="M15.407 10.796h-3.331c-0.188 0-0.341 0.153-0.341 0.341v3.331c0 0.188 0.153 0.341 0.341 0.341h3.331c0.189 0 0.341-0.153 0.341-0.341v-3.331c0-0.188-0.153-0.341-0.341-0.341zM13.399 14.127h-0.982v-0.982h0.982v0.982zM13.399 12.463h-0.982v-0.984h0.982v0.984zM15.066 14.127h-0.984v-0.982h0.984v0.982zM15.066 12.463h-0.984v-0.984h0.984v0.984zM21.607 11.424l-7.659-5.802c-0.057-0.043-0.128-0.069-0.206-0.069s-0.149 0.026-0.206 0.069l0.001-0.001-7.66 5.802c-1.060 0.842 0.139 2.425 1.242 1.635l0.485-0.368v8.128h-0.724c-0.188 0-0.341 0.153-0.341 0.341v1.249c0 0.188 0.153 0.341 0.341 0.341h13.721c0.189 0 0.341-0.153 0.341-0.341v-1.249c0-0.189-0.153-0.341-0.341-0.341h-0.725v-8.13l0.485 0.367c0.433 0.348 1.121 0.253 1.446-0.196 0.338-0.454 0.247-1.099-0.201-1.436zM20.26 21.501v0.566h-13.038v-0.566h13.039zM13.742 15.726c-1.22 0-2.212 1.078-2.212 2.404v2.688h-3.243v-8.644l5.455-4.133 5.452 4.132v8.646h-3.242v-2.688c0-1.325-0.992-2.404-2.211-2.404zM15.271 18.13v2.635h-3.059v-2.635c0-0.949 0.686-1.722 1.53-1.722s1.529 0.772 1.529 1.722zM21.262 12.451c-0.124 0.145-0.31 0.189-0.485 0.064l-6.829-5.174c-0.057-0.043-0.128-0.069-0.206-0.069s-0.15 0.026-0.207 0.070l0.001-0.001c-0.723 0.545-6.265 4.746-6.828 5.173-0.354 0.27-0.781-0.271-0.42-0.546l7.453-5.646 7.455 5.646c0.149 0.113 0.179 0.329 0.065 0.483zM31.163 4.78l-2.589-0.814c-0.087-0.028-0.186-0.045-0.29-0.045-0.163 0-0.317 0.041-0.452 0.112l0.005-0.003c-0.226 0.119-0.396 0.319-0.473 0.56l-0.002 0.007-0.643 2.046-2.632 8.37-0.627-1.719v-10.276c0-0.189-0.153-0.341-0.341-0.341h-3.524l-0.842-2.316c-0.059-0.173-0.267-0.271-0.437-0.204l-6.923 2.52h-3.078c-0.088 0.007-0.177 0.034-0.242 0.099l-1.744 1.743-5.944 2.164c-0.177 0.065-0.269 0.26-0.204 0.437l3.517 9.66v10.284c0 0.189 0.152 0.341 0.341 0.341h3.526l0.842 2.314c0.060 0.173 0.266 0.27 0.437 0.204l6.915-2.517h5.665l0.007 0.090 0.162 2.132c0.014 0.177 0.161 0.315 0.34 0.315 0.106 0 0.201-0.048 0.264-0.124l0-0.001 3.373-4.124c0.025-0.035 0.044-0.074 0.062-0.113 0.72-2.286 5.483-17.434 6.161-19.589 0.166-0.492-0.132-1.067-0.632-1.212zM23.46 15.287l0.29 0.796-0.29 0.923v-1.719zM27.267 7.174l1.239 0.39-4.926 15.664-1.24-0.39c1.288-4.088 3.616-11.499 4.926-15.664zM18.228 0.915l0.64 1.762h-5.48l4.84-1.762zM7.973 3.842v3.105h-3.107l3.107-3.105zM3.798 7.046c-0.031 0.029-0.054 0.065-0.069 0.105l-0.001 0.002c-0.018 0.043-0.022 0.090-0.031 0.134v7.498l-2.758-7.579 4.247-1.546-1.387 1.386zM8.931 29.165l-0.64-1.759h5.471l-4.831 1.759zM21.2 24.189c-0.008 0.032-0.013 0.070-0.013 0.108 0 0.010 0 0.021 0.001 0.031l-0-0.001 0.184 2.397h-16.992c-0.002-4.765 0.004-14.349 0.003-19.095h3.931c0.189 0 0.341-0.153 0.341-0.341v-3.929h14.122v15.817c-0.387 1.23-1.195 3.8-1.577 5.013zM22.209 28.726l-0.059-0.779 0.554 0.174-0.495 0.605zM23.169 27.552l-1.075-0.338c0-0.002-0.014-0.174-0.013-0.175l-0.174-2.271 2.816 0.885-1.554 1.899zM25.084 25.051l-3.13-0.985 0.181-0.577 3.13 0.985-0.181 0.577zM25.471 23.823l-1.239-0.39 4.926-15.664 1.24 0.39-4.926 15.664zM31.143 5.787l-0.541 1.721-3.13-0.984 0.541-1.721c0.037-0.116 0.144-0.199 0.27-0.199 0.031 0 0.060 0.005 0.087 0.014l-0.002-0.001 2.589 0.814c0.116 0.038 0.198 0.145 0.198 0.271 0 0.030-0.005 0.059-0.013 0.086l0.001-0.002z"></path>
</symbol>
<symbol id="icon-earth" viewBox="0 0 32 32">
<path d="M16 32c-8.836 0-16-7.164-16-16s7.164-16 16-16c8.836 0 16 7.164 16 16s-7.164 16-16 16zM28.968 14.659c0.026-0.013 0.040-0.035 0.050-0.070 0.021 0.111 0.072 0.209 0.154 0.281 0.002 0.010-0.003 0.008 0.002 0.022 0.008 0 0.014-0.006 0.021-0.006 0.084 0.068 0.188 0.114 0.305 0.114 0.18 0 0.33-0.1 0.418-0.241 0.006 0.007 0.016 0.016 0.021 0.024-0.001-0.016-0.003-0.032-0.005-0.048 0.039-0.071 0.066-0.149 0.066-0.235 0-0.276-0.225-0.5-0.5-0.5-0.176 0-0.322 0.096-0.412 0.232-0.004-0.003 0-0.015-0.011-0.011 0.013-0.038-0.022-0.135-0.077-0.239v0.518c0 0.057-0.016 0.108-0.032 0.159zM5.992 14.509c0-0.151-0.344-0.408-0.433-0.408 0-0.027-0.14-0.335-0.193-0.335 0-0.104-0.365-0.571-0.423-0.367-0.038 0.132 0.279 0.31 0.279 0.463 0.059 0 0.307 0.47 0.356 0.552 0.542 0.916-0.405 0.29-0.405-0.098-0.121-0.060-0.312-0.521-0.312-0.647-0.071-0.057-0.281-0.502-0.264-0.502 0-0.292-0.161-0.432-0.481-0.432-0.015-0.029-0.284-0.407-0.289-0.407 0-0.12-0.216-0.492-0.336-0.551 0-0.249-0.128-0.556-0.071-0.814 0-0.271-0.014-0.578-0.106-0.856-0.835 1.793-1.314 3.785-1.314 5.893 0 6.041 3.834 11.174 9.196 13.137 0.006-0.496 0.043-1.090 0.156-1.090 0-0.074 0.063-0.384 0.12-0.384 0-0.19 0.023-0.419 0-0.647-0.071-0.143 0.094-0.326 0.144-0.551 0.277-0.139 0.081-1.533 0.29-1.533 0-0.697 0.156-1.103 0.047-1.749 0.053 0-0.315-0.391-0.312-0.384-0.353 0-0.6-0.566-0.6-0.814-0.034-0.109-0.121-0.272-0.121-0.407 0.081 0-0.505-0.856-0.505-0.839-0.31-0.172 0.017-0.412 0.048-0.694-0.269-0.089 0.003-0.815 0.12-0.815 0.012-0.092 0.060-0.155 0.145-0.191 0.060 0.239 0.339-0.119 0.12-0.119 0-0.158-0.018-0.496 0-0.575 0-0.244-0.216-0.722-0.384-0.216-0.18-0.089-0.634-0.073-0.673-0.359 0.028-0.141-0.259-0.429-0.36-0.479 0.094-0.246-0.487-0.575-0.697-0.575 0-0.053-0.111-0.029-0.144-0.096-0.214 0-0.263-0.288-0.505-0.288-0.279 0-0.56-0.191-0.817-0.191-0.086-0.171-0.485-0.104-0.577-0.288-0.209 0-0.291-0.396-0.297-0.542-0.009-0.18-0.152-0.802-0.402-0.802zM26.248 6.484c-0.002 0.006 0.002 0.002-0.008 0.022 0.015 0 0.033 0.017 0.050 0.024-0.015-0.015-0.028-0.030-0.042-0.046zM26.549 6.815c0.035 0.068 0.061 0.131 0.053 0.17 0.035 0.001 0.052-0.018 0.080-0.025-0.043-0.049-0.090-0.095-0.133-0.145zM27.418 11.371c0.016-0.432-0.36-0.36-0.479-0.6-0.124 0-0.169-0.096-0.337-0.096-0.109-0.037-0.195-0.011-0.258 0.078-0.257 0.098-0.102-0.125-0.295-0.125 0.009-0.247-0.089-0.315-0.361-0.288-0.156 0.352-0.396 0.563-0.36 0.959 0.115 0.026 0.095 0.052 0.072 0.167 0.153 0.008 1.081-0.048 1.081-0.144 0.032 0 0.193 0.331 0.193 0.048 0.129 0 0.197 0.303 0.505 0.215 0 0.062 0.514-0.214 0.239-0.214zM27.467 16.474c0.018-0.088-0.044-0.127-0.096-0.216 0.137 0-0.433-1.057-0.433-1.222-0.087-0.043-0.198-0.345-0.218-0.455-0.117-0.078-0.238-0.334-0.288-0.479-0.119-0.079-0.409-0.433-0.456-0.599 0.172 0.019 0.432 0.054 0.432-0.168-0.116 0-0.133-0.143-0.023-0.143-0.036-0.147 0.078-0.253 0.103-0.368 0.030-0.139 0.089-0.353 0.089-0.519-0.165 0-0.205 0.028-0.336 0.072 0 0.097-0.293-0.024-0.336-0.024-0.063-0.126-0.52 0.164-0.648-0.096-0.207-0.187-0.151-0.331-0.218-0.595-0.034-0.134-0.217-0.142-0.328-0.164-0.313-0.061-0.087 0.373-0.104 0.472 0.192 0-0.121 0.238-0.121 0.359-0.324-0.070-0.216-0.431-0.407-0.527-0.057-0.096-0.012-0.168-0.145-0.168 0-0.128 0.068-0.36-0.072-0.407 0-0.062-0.272-0.087-0.312-0.168-0.172 0-0.572-0.65-0.695-0.431-0.077 0.14 0.065 0.174 0.094 0.288 0.249-0.049 0.225 0.41 0.529 0.359 0 0.064 0.008 0.129 0.023 0.192 0.225-0.053 0.199 0.167 0.312 0.167-0.082 0.109-0.342-0.174-0.271 0.064 0.041 0.138 0.018 0.256-0.161 0.391 0-0.149-0.012-0.551-0.168-0.551-0.106-0.212-0.421-0.161-0.554-0.359-0.108 0-0.15-0.336-0.336-0.359-0.035 0.049-0.166 0.096-0.217 0.096-0.101 0.203-0.672 0.021-0.672 0.048-0.009 0.002-0.32 0.762-0.338 0.862-0.035 0.215-0.208 0.219-0.26 0.423-0.026 0.102-0.653 0.054-0.653 0.129-0.271-0.090-0.505-0.28-0.505-0.575-0.022 0 0.051-0.753 0.097-0.863 0.055 0.015 0.066 0.034 0.097 0.096 0.166-0.062 0.553 0.041 0.553-0.144 0.161 0.004 0.209 0.068 0.144 0.192 0.15 0.028 0.409 0.066 0.409-0.144-0.088 0-0.097-0.008-0.097-0.096 0.288-0.299-0.216-0.569-0.216-0.718-0.102-0.034-0.31-0.255-0.162-0.172 0.125 0.069 0.582 0.212 0.402-0.092 0.012-0.004 0.020-0.012 0.023-0.023 0.051 0.036 0.266 0.257 0.266 0.048 0.059 0 0.287-0.144 0.096-0.144 0.018-0.108 0.014-0.198 0.023-0.264 0.305 0.164 0.135-0.112 0.289-0.215 0 0.199 0.164-0.096 0.264-0.096 0.119-0.177 0.391-0.040 0.457-0.24-0.147-0.048-0.12-0.416-0.12-0.55 0.177 0.029 0.374-0.239 0.401-0.055 0.010 0.071 0.019 0.267 0.055 0.294 0.263 0.138 0.193-0.079 0.193-0.215-0.088 0-0.205-0.308-0.217-0.456-0.072 0.010-0.188 0.040-0.217 0.095-0.262 0-0.44-0.095-0.648-0.095-0.016-0.032-0.266-0.312-0.24-0.312-0.146-0.251 0.146-0.178 0.192-0.19 0-0.238 0.991-0.196 1.034-0.576-0.326 0 0.336-0.552 0.336-0.55 0.221-0.189 0.338-0.352 0.613-0.373 0.116-0.008 1.406-0.364 1.406-0.203 0.052 0.002 0.224 0.004 0.402 0.010-2.497-2.322-5.834-3.752-9.513-3.752-3.563 0-6.806 1.342-9.277 3.535 0.022 0.050 0.039 0.098 0.038 0.132 0.131-0.009 0.319-0.093 0.361 0.073-0.065-0.001-0.13-0.009-0.192-0.025 0.046 0.371-0.162 0.144-0.336 0.144 0-0.009-0.077-0.040-0.159-0.062-0.053 0.050-0.109 0.097-0.162 0.147 0.006 0.016-0.003 0.017 0.007 0.035 0.056 0 0.027 0.087 0.187 0.14 0.185 0.063 0.388 0.098 0.583 0.129 0.158 0.025 0.249-0.029 0.384-0.029 0-0.020 0.33-0.167 0.097-0.167 0.032-0.132-0.027-0.165-0.169-0.167 0.012-0.14 0.345-0.048 0.481-0.048 0.104-0.175 0.003-0.154 0.095-0.313 0.11-0.195 0.241-0.026 0.313-0.213 0.109 0.040 0.206 0.099 0.241 0.237 0.087 0.072 0.529 0.724 0.529 0.263 0.158 0.053 0.237 0.349 0.24 0.504 0.287-0.042 0.312-0.257 0.312-0.48 0.066 0-0.024-0.107-0.024-0.144 0.107-0.039 0.241 0.102 0.241-0.047 0.046 0 0.048 0.046 0.048 0.096 0.149 0.029 0.245-0.017 0.336 0.015 0.063 0.022 0.031 0.349 0.002 0.464-0.036 0.146-0.315 0.148-0.315 0.216-0.316 0.236 0.373 0.359 0.481 0.503-0.065 0-0.312-0.032-0.312-0.047-0.156 0-0.534 0.165-0.673 0.047 0.194 0 0.259-0.233 0.289-0.455-0.179-0.067-0.39 0.043-0.44 0.221-0.084 0.294-0.279-0.012-0.377 0.186-0.038 0.012-0.385 0.173-0.385 0.119-0.39 0.055-0.288 0.386-0.288 0.743 0.155 0.093 0.47 0.358 0.456 0.503 0.35 0.062 0.478 0.099 0.793 0.144 0.026 0.051 0.13 0.099 0.193 0.119 0 0.206 0.187 0.169 0.36 0.169 0-0.263 0.306 0.219 0.336 0.311-0.042 0 0.072 0.269 0.096 0.36-0.048-0.017-0.063 0-0.048 0.048 0.152 0.056 0.393 0.040 0.433-0.12-0.146 0-0.097-0.167-0.097-0.264-0.15-0.1-0.127-0.293 0.024-0.335 0 0.136 0.495-0.085 0.216-0.191 0.068-0.153 0.114-0.388 0.003-0.521-0.071-0.084-0.16 0-0.195-0.126 0.189-0.047 0.050-0.407 0.048-0.575 0.060-0.023 0.216 0.038 0.216 0 0.185 0 0.493 0.234 0.601-0.049 0.309 0.141 0.063 0.275 0.385 0.168 0 0.076 0.363 0.431 0.409 0.431 0 0.017-0.009 0.12 0.071 0.12 0 0.077-0.048-0.044-0.048 0.095 0.045 0.005 0.289 0.049 0.289-0.047 0.155 0 0.264-0.19 0.264-0.335 0.097-0.063 0.267 0.527 0.384 0.527 0.086 0.134 0.361 0.329 0.361 0.455 0.058 0.059 0.119 0.043 0.119 0.216 0.073 0 0.217-0.287 0.217-0.024 0.068 0 0.266 0.146 0.289 0.263-0.173 0-0.009 0.168-0.098 0.168 0 0.166-0.371 0.034-0.455 0.024-0.115 0.515-0.809 0.145-1.229 0.278-0.221 0.070-0.648 0.557-0.671 0.8 0.268 0.003 0.386-0.232 0.625-0.312 0.195 0 0.233-0.118 0.409-0.167 0 0.049 0.048 0.023 0.048 0.072-0.342 0-0.134 0.221-0.034 0.382 0.062 0.1 0.133 0.148 0.212 0.179-0.033 0.058-0.060 0.116-0.081 0.181 0 0.001-0.001 0-0.001 0.001-0.065 0.022-0.192 0.069-0.217 0.12-0.387 0.043-0.196 0.017-0.17-0.076 0.014 0.033 0.153 0.003 0.147 0.004-0.023-0.116-0.058-0.1-0.024-0.167-0.21 0-0.312 0.096-0.481 0.096-0.028 0.057-0.175 0.192-0.24 0.192-0.049 0.148-0.16 0.417-0.289 0.503 0-0.039-0.342 0.215-0.312 0.215-0.076 0.123-0.159 0.119-0.193 0.311-0.023 0.012-0.12 0.333-0.12 0.383-0.149 0.099-0.204 0.503-0.457 0.503-0.155 0.308-0.433 0.267-0.433 0.671 0.094 0.096 0.13 0.521 0.159 0.657 0.036 0.169 0.092 0.345-0.134 0.349-0.016-0.025-0.174-0.264-0.145-0.264 0-0.099-0.121-0.416-0.192-0.515-0.095-0.133-0.271 0.021-0.409-0.037-0.059-0.118-0.458-0.144-0.6-0.144 0.023 0.089 0.088 0.117 0.096 0.216-0.118 0.048-0.186 0.102-0.308 0.085-0.209-0.029-0.184-0.192-0.414-0.169-0.368 0.037-0.625 0.342-0.625 0.707-0.041 0-0.041 0.719 0 0.719 0 0.203 0.168 0.35 0.168 0.503 0.163 0 0.346 0.359 0.505 0.359 0.018 0.127-0.080 0.147 0.192 0.145 0-0.014 0.148-0.093 0.168-0.192-0.188-0.046-0.001-0.288 0.12-0.335 0 0.171 0.24-0.057 0.24-0.072 0.027-0.011 0.265-0.096 0.265-0.096 0-0.194 0.181 0.019 0.048 0.096-0.13 0-0.12 0.216-0.192 0.216-0.031 0.154-0.092 0.288-0.128 0.438-0.046 0.185 0.104 0.204 0.056 0.377 0.191 0.036 0.384 0.001 0.577 0 0.001-0.034-0.006-0.067-0.024-0.096 0.279 0 0.024 0.527 0.193 0.527 0 0.199 0.096 0.354 0.096 0.479 0.13 0.086 0.208 0.201 0.168 0.359 0.16 0.021 0.504 0.062 0.504-0.144 0.243 0 0.26 0.165 0.242 0.335 0.484 0 0.181-0.479 0.383-0.479 0.019-0.079 0.052-0.093 0.099-0.041 0.099 0.053 0.174-0.099 0.253-0.147 0.025-0.017 0.113-0.068 0.129-0.068 0.068 0.041 0.074 0.029 0.104 0.075 0.132-0.001 0.265-0.075 0.378-0.153 0.173 0.021 0.117 0.393 0.441 0.416 0.13 0.009 0.431 0.045 0.543-0.032 0.028-0.019 0.131 0.065 0.142 0.101 0.108 0 0.1 0.094 0.146 0.092 0.011 0.021 0.027 0.029 0.049 0.023 0.014 0.041 0.1 0.053 0.145 0.167 0 0.104 0.216 0.122 0.216 0.191 0.155 0.078-0.053 0.099 0.185 0.171 0.131 0.041 0.252 0.107 0.393 0.117 0.045-0.171 0.191 0.023 0.265 0.023 0.038 0.078 0.058 0.019 0.095 0.096 0.223 0.186 0.076 0.114 0.168 0.312 0.107 0.070 0.141 0.314 0.17 0.455-0.086 0-0.025 0.329-0.025 0.36-0.104 0 0.266 0.197 0.266-0.049 0.152 0.025 0.252 0.191 0.36 0.191-0.063 0.145 0.168 0.254 0.168 0.025 0.228 0.023 0.167 0.363 0.145 0.479 0.169 0 0.218-0.094 0.362-0.112 0.156-0.099 0.33-0.171 0.527-0.171 0.553 0 1 0.447 1 1 0 0.498-0.371 0.893-0.848 0.969-0.064 0.073-0.122 0.136-0.126 0.136 0 0.048-0.011 0.526-0.025 0.526 0 0.096-0.073 0.623-0.144 0.623 0 0.271-0.177 0.32-0.24 0.575-0.146 0.108-0.541 0.288-0.602 0.407-0.113 0-0.197 0.096-0.312 0.096-0.016 0.033-0.261 0.264-0.217 0.264-0.018 0.17 0.013 0.57-0.079 0.682-0.062 0.074-0.151 0.066-0.112 0.182-0.135 0 0.008 0.096-0.205 0.096-0.134 0-0.373 0.191-0.38 0.353-0.009 0.198-0.062 0.341-0.232 0.462 0 0.068-0.312 0.088-0.312 0.264 0.029 0 0 0.326 0 0.359-0.093-0.003-0.321 0.090-0.36 0.167-0.314 0-0.276 0.032-0.48 0.168 0 0.042-0.029 0.191-0.072 0.191 0 0.243-0.173 0.022-0.313 0.145 0.055 0 0.125 0.239 0.096 0.239 0 0.211-0.131 0.229-0.264 0.384-0.063 0.042-0.123 0.216-0.168 0.216 0 0.142-0.071 0.271-0.071 0.407 0.030 0 0.002 0.061 0.023 0.118 0.067-0.019 0.069-0.095 0.096-0.095 0-0.12 0.191 0.071 0.072 0.071-0.099 0.15-0.206 0.153-0.265 0.36-0.060 0-0.112 0.058-0.156 0.126 1.178 0.321 2.414 0.509 3.696 0.509 4.924 0 9.246-2.548 11.742-6.393 0.015-0.354 0.070-0.692 0.109-0.809 0.098 0.072 0.171 0.207 0.24 0-0.173-0.034-0.131-0.094-0.072-0.239 0.066 0.040 0.199 0.089 0.307 0.082 0.033-0.062 0.059-0.128 0.092-0.19-0.098-0.076 0.037-0.273 0.084-0.177 0.025-0.048 0.047-0.098 0.070-0.146-0.011-0.003-0.008 0.004-0.024-0.001 0-0.087 0.016-0.076 0.073-0.12 0.001 0.009 0 0.009 0.002 0.017 0.873-1.827 1.377-3.864 1.377-6.024 0-0.071-0.010-0.139-0.011-0.21-0.026 0.098-0.075 0.204-0.144 0.228 0 0.063-0.715 0.374-0.672 0.503-0.126 0-0.568 0.126-0.649 0.287-0.089 0-0.448 0.127-0.481 0.192-0.446 0.001-0.361-0.526-0.576-0.526zM29.5 11h-0.531c-0.004-0.005-0.008-0.006-0.012-0.013-0.027 0-0.14-0.254-0.096-0.312 0.043 0 0.063 0.004 0.086 0.006-0.045-0.11-0.094-0.218-0.143-0.327-0.108 0.074-0.203 0.168-0.352 0.177 0 0.041-0.213 0.455 0 0.455 0 0.008 0.004 0.014 0.006 0.021-0.255 0.024-0.458 0.232-0.458 0.493 0 0.276 0.224 0.5 0.5 0.5h0.197c0.012 0.091 0.061 0.17 0.236 0.209 0.055 0.231 0.467 0.313 0.529 0.071-0.174 0-0.117-0.167-0.102-0.28h0.14c0.275 0 0.5-0.224 0.5-0.5s-0.225-0.5-0.5-0.5zM28.043 17.502c0.035 0.002 0.266-0.004 0.266-0.045 0.209 0 0.492-0.029 0.697-0.097 0 0.31-0.261 0.483-0.217 0.791-0.173 0-0.097 0.178-0.097 0.239-0.112 0.069-0.129 0.195-0.264 0.264 0 0.139-0.312 0.369-0.404 0.488-0.104 0.133-0.417 0.364-0.458 0.533 0.011-0.040-0.572 0.607-0.436 0.607 0 0.121-0.164 1.078 0.048 1.078 0 0.084 0.181 0.887 0.071 0.887 0 0.258-0.168 0.416-0.168 0.622-0.082 0.056-0.199 0.087-0.24 0.169-0.147 0-0.218 0.312-0.288 0.312 0 0.333-0.097 0.58-0.097 0.958 0.027 0-0.192 0.539-0.192 0.574-0.177 0.119-0.625 0.546-0.625 0.768 0 0-0.312 0.438-0.36 0.503-0.094 0-0.818 0.136-0.818 0.192-0.154 0-0.552 0.121-0.648-0.024 0-0.152-0.083-0.345-0.096-0.552-0.074 0-0.086-0.311-0.168-0.311 0-0.066-0.459-0.983-0.385-0.983 0-0.095-0.082-0.407-0.096-0.407 0-0.33-0.241-0.605-0.241-0.91-0.071 0-0.218-0.67-0.144-0.67 0-0.352 0.123-0.582 0.174-0.973 0.057-0.429-0.027-0.69-0.102-0.993-0.041 0-0.179-0.229-0.193-0.287-0.193-0.128-0.264-0.382-0.264-0.622 0.126-0.144 0.176-0.685 0.145-0.863-0.243-0.115-0.34-0.072-0.602-0.072-0.155-0.311-1.196-0.119-1.491-0.119 0 0.17-0.725-0.033-0.793-0.168-0.177 0-0.528-0.376-0.528-0.551-0.194-0.129-0.504-0.771-0.504-0.982-0.168-0.084-0.117-0.408-0.025-0.408 0.023-0.090-0.059-0.374-0.098-0.509-0.029-0.101 0.098-0.21 0.098-0.33 0-0.334 0.008-0.488 0.195-0.845 0.059-0.112 0.134-0.217 0.189-0.357 0.1-0.251 0.13-0.012 0.265-0.236 0.129-0.064 0.204-0.278 0.337-0.383 0.058-0.077 0.060-0.109 0-0.168 0.026 0 0.168-0.369 0.168-0.454 0.188-0.261 0.055-0.142 0.24-0.12 0.068-0.074 0.181-0.264 0.288-0.264 0.047-0.093 0.165-0.144 0.265-0.144 0 0.144 0.392-0.047 0.433-0.047 0.067-0.135 0.499-0.288 0.601-0.288 0-0.164 0.852 0.046 0.986 0.024 0-0.024 0-0.048 0-0.072 0.182 0.043 0.514 0.773 0.48 0.935 0.14 0 0.27-0.023 0.361 0 0 0.155 0.292 0.193 0.425 0.2 0.185 0.009 0.728-0.019 0.728-0.272 0.143 0 0.27 0.1 0.242 0.263 0.162 0.018 1.125 0.037 1.057 0.239 0.141 0 0.177 0.241 0.312 0.241-0.027 0.166 0.168 0.599 0.312 0.599 0 0.144 0.090 0.409 0.217 0.502 0.068 0.206 0.293 0.64 0.504 0.767-0.090 0.17 0.137 0.31 0.193 0.479-0.013 0 0.049 0.251 0.119 0.288 0 0.17 0.358 0.863 0.554 0.863 0.013 0.084-0.184 0.122 0.072 0.141zM22.852 12.137c0.037-0.143 0.121-0.032 0.199-0.006 0.185 0.060 0.121-0.003 0.258-0.065 0 0.39-0.224 0.094-0.457 0.071zM22.346 11.418c0.098 0 0.125 0.44-0.144 0.359 0-0.109-0.069-0.311 0.073-0.311 0.041 0.17 0.071 0.101 0.071-0.048zM22.227 11.131c0.111 0.048 0.16 0.032 0.144-0.048 0.146 0.048-0.019 0.152-0.048 0.264-0.075-0.074-0.052-0.1-0.096-0.216zM19.654 8.998c-0.236-0.061 0.243-0.131 0.264-0.191-0.080 0-0.135-0.083-0.104-0.153 0.036-0.083 0.095 0.099 0.177 0.058 0.097-0.010 0.288-0.155 0.19 0.125-0.1 0.284-0.191 0.492-0.551 0.497-0.129-0.13-0.005-0.198 0.024-0.336zM20.544 8.016c0.194 0 0.024 0.144-0.019 0.144 0.033 0.013-0.006 0.129-0.006 0.167 0.18-0.002 0.183-0.112 0.312-0.144-0.027 0.161-0.207 0.192-0.031 0.33 0.093 0.073 0.188 0.159 0.151 0.27 0.229 0 0.263 0.22 0.216 0.479 0.127 0 0.121 0.006 0.121-0.121 0.123 0.034 0.114 0.145 0 0.145-0.114 0.225-0.413 0.215-0.625 0.215-0.002-0.174-0.035-0.185-0.196-0.136-0.22 0.067-0.048-0.175-0.044-0.295 0.024 0 0.499 0.022 0.216-0.072-0.015-0.258-0.073-0.335-0.312-0.335 0-0.176-0.062-0.163-0.091-0.356-0.041-0.285 0.223 0.020 0.308-0.291zM20.471 9.573c0 0.059-0.12 0.106-0.144 0.023 0.023 0.008 0.032 0 0.023-0.023 0.041 0 0.082 0 0.121 0zM18.5 7h-1c-0.276 0-0.5-0.224-0.5-0.5s0.224-0.5 0.5-0.5h1c0.276 0 0.5 0.224 0.5 0.5s-0.224 0.5-0.5 0.5zM12.674 15.85c0.056 0 0.121 0.022 0.121 0.072-0.073 0-0.167 0.069-0.121-0.072zM11.762 15.899c-0.040 0.076-0.364 0.063-0.409-0.025 0.12 0 0.213 0.049 0.336 0 0-0.066-0.055-0.119-0.096-0.191 0.131 0 0.278 0.1 0.457 0.096 0-0.111-0.049 0.024 0-0.12 0.075 0.019 0.256 0.191 0.264 0.263-0.263-0.028-0.275-0.023-0.552-0.023zM10.704 15.324c-0.123 0-0.36-0.107-0.433-0.216 0.119 0.005 0.237 0.054 0.312-0.072 0.305 0.031 0.332 0.241 0.577 0.241 0.046 0.081 0.308 0.267 0.055 0.291-0.191 0.018-0.431-0.086-0.511-0.244zM10.896 15.995c-0.089 0-0.236 0.039-0.168-0.145 0.118 0.016 0.174 0.065 0.168 0.145zM11.064 15.971c-0.048 0.008-0.096 0.016-0.144 0.024 0.014-0.111 0.119-0.235 0.144-0.024zM11.953 17.024c-0.019 0.067-0.016 0.071-0.095 0.071 0.008-0.031 0.015-0.062 0.023-0.095 0.025 0.008 0.048 0.016 0.072 0.024zM9.79 15.036c0.023 0.008 0.048 0.017 0.072 0.024 0.031 0.119 0.096 0.060 0.168 0.024 0 0.139-0.322 0.179-0.24-0.048z"></path>
</symbol>
<symbol id="icon-envelop" viewBox="0 0 32 32">
<path d="M30.979 5.106h-29.957c-0.563 0-1.021 0.458-1.021 1.021v19.745c0 0.563 0.458 1.021 1.021 1.021h29.957c0.563 0 1.021-0.458 1.021-1.021v-19.745c0-0.563-0.458-1.021-1.021-1.021zM1.021 5.787h29.957c0.187 0 0.34 0.153 0.34 0.34v1.443l-12.972 12.625c-0.521 0.495-1.228 0.8-2.006 0.8-0.779 0-1.487-0.306-2.010-0.804l0.001 0.001-13.651-12.627v-1.437c0-0.187 0.153-0.34 0.34-0.34zM30.979 26.213h-29.957c-0.188-0-0.34-0.153-0.34-0.34v-17.379l13.185 12.196c0.641 0.611 1.511 0.987 2.469 0.987 0.002 0 0.003 0 0.005 0h-0c0.001 0 0.002 0 0.003 0 0.96 0 1.833-0.377 2.477-0.991l-0.001 0.001 12.5-12.166v17.352c0 0.187-0.153 0.34-0.34 0.34z"></path>
<path d="M8.438 17.401l-3.832 3.837c-0.062 0.062-0.1 0.147-0.1 0.241 0 0.188 0.152 0.341 0.341 0.341 0.094 0 0.179-0.038 0.241-0.1l3.832-3.837c0.062-0.062 0.1-0.147 0.1-0.241 0-0.188-0.152-0.341-0.341-0.341-0.094 0-0.179 0.038-0.241 0.1v0zM24.463 16.817c-0.061-0.059-0.145-0.096-0.236-0.096-0.188 0-0.34 0.152-0.34 0.34 0 0.092 0.036 0.175 0.096 0.237l4.272 4.273c0.061 0.062 0.147 0.101 0.241 0.101s0.18-0.038 0.241-0.101l0-0c0.062-0.062 0.1-0.147 0.1-0.241s-0.038-0.179-0.1-0.241l-4.272-4.273z"></path>
</symbol>
<symbol id="icon-eye-closed" viewBox="0 0 32 32">
<path d="M20.771 18.177c0.298-0.638 0.471-1.385 0.471-2.173 0-2.897-2.348-5.245-5.245-5.245-0.788 0-1.536 0.174-2.206 0.485l0.032-0.014 1.583 1.581c0.179-0.035 0.385-0.055 0.596-0.055 0.895 0 1.706 0.363 2.292 0.95l0 0c0.586 0.586 0.949 1.396 0.949 2.291 0 0.211-0.020 0.418-0.059 0.617l0.003-0.020 1.584 1.583z"></path>
<path d="M7.817 10.411c-0.345 0.284-0.672 0.571-0.98 0.853-1.237 1.149-2.353 2.392-3.348 3.73l-0.052 0.072c-0.052 0.068-0.133 0.18-0.212 0.294l-0.034 0.052-0.013 0.021-0.005 0.005v0.003l-0.377 0.559 0.373 0.557 0.001 0.001 0.001 0.003 0.004 0.005 0.015 0.021c0.099 0.147 0.179 0.26 0.263 0.371l-0.017-0.024c1.047 1.41 2.163 2.653 3.383 3.786l0.017 0.016c2.227 2.049 5.465 4.264 9.164 4.264 1.827 0 3.54-0.54 5.075-1.333l-1.497-1.496c-1.139 0.512-2.343 0.829-3.577 0.829-2.928 0-5.689-1.785-7.808-3.736-1.069-0.992-2.038-2.059-2.911-3.203l-0.045-0.061c0.919-1.205 1.888-2.272 2.941-3.249l0.016-0.015c0.333-0.307 0.684-0.611 1.048-0.904l-1.423-1.421zM22.76 20.168c0.364-0.293 0.715-0.596 1.048-0.904 1.069-0.992 2.039-2.059 2.913-3.203l0.045-0.061c-0.919-1.205-1.888-2.272-2.941-3.249l-0.016-0.015c-2.119-1.951-4.88-3.736-7.808-3.736-1.233 0-2.439 0.317-3.577 0.829l-1.497-1.496c1.535-0.793 3.249-1.333 5.075-1.333 3.699 0 6.937 2.215 9.163 4.264 1.237 1.149 2.353 2.392 3.348 3.73l0.052 0.072c0.053 0.069 0.134 0.181 0.213 0.295l0.033 0.050 0.013 0.021 0.005 0.005 0.001 0.003 0.376 0.559-0.376 0.559-0.001 0.003-0.004 0.005-0.013 0.021c-0.098 0.145-0.179 0.258-0.263 0.369l0.016-0.022c-1.047 1.41-2.163 2.653-3.383 3.786l-0.017 0.016c-0.309 0.283-0.636 0.569-0.981 0.853l-1.423-1.421zM25 26.413l-20-20 1.413-1.413 20 20-1.413 1.413z"></path>
</symbol>
<symbol id="icon-eye-opened" viewBox="0 0 32 32">
<path d="M16 7c-3.699 0-6.937 2.215-9.163 4.264-1.237 1.149-2.353 2.392-3.348 3.73l-0.052 0.072c-0.052 0.068-0.133 0.18-0.212 0.294l-0.034 0.052-0.013 0.021-0.005 0.005-0.365 0.579 0.364 0.541 0.001 0.003 0.004 0.005 0.015 0.021c0.099 0.147 0.179 0.26 0.263 0.371l-0.017-0.024c1.047 1.41 2.163 2.653 3.383 3.786l0.017 0.016c2.227 2.049 5.465 4.264 9.164 4.264s6.937-2.215 9.163-4.264c1.237-1.149 2.353-2.392 3.348-3.73l0.052-0.072c0.051-0.067 0.132-0.18 0.212-0.293l0.035-0.052 0.013-0.021 0.005-0.005 0.001-0.003 0.376-0.559-0.376-0.56h-0.001l-0.004-0.007-0.013-0.021c-0.098-0.145-0.179-0.258-0.263-0.369l0.016 0.022c-1.047-1.41-2.163-2.653-3.383-3.786l-0.017-0.016c-2.228-2.049-5.467-4.264-9.164-4.264zM5.72 16.621c-0.128-0.156-0.287-0.359-0.443-0.563l-0.042-0.058c0.919-1.205 1.888-2.272 2.941-3.249l0.016-0.015c2.119-1.951 4.88-3.736 7.808-3.736s5.691 1.785 7.808 3.736c1.069 0.992 2.039 2.059 2.913 3.203l0.045 0.061c-0.919 1.205-1.889 2.272-2.943 3.249l-0.016 0.015c-2.115 1.951-4.877 3.736-7.807 3.736-2.928 0-5.689-1.785-7.808-3.736-0.881-0.817-1.69-1.68-2.436-2.597l-0.036-0.046zM19 16c0 1.657-1.343 3-3 3s-3-1.343-3-3v0c0-1.657 1.343-3 3-3s3 1.343 3 3v0zM21 16c0 2.761-2.239 5-5 5s-5-2.239-5-5v0c0-2.761 2.239-5 5-5s5 2.239 5 5v0z"></path>
</symbol>
<symbol id="icon-facebook" viewBox="0 0 32 32">
<path d="M16 0.72c-8.438 0-15.341 6.888-15.341 15.372 0 7.671 5.615 14.037 12.948 15.188v-10.739h-3.897v-4.449h3.897v-3.39c0-3.851 2.286-5.968 5.799-5.968 1.672 0 3.421 0.292 3.421 0.292v3.789h-1.933c-1.902 0-2.501 1.181-2.501 2.393v2.884h4.265l-0.69 4.449h-3.574v10.739c7.381-1.198 12.948-7.526 12.948-15.154 0-0.012 0-0.024-0-0.036v0.002c0-8.484-6.904-15.372-15.341-15.372z"></path>
</symbol>
<symbol id="icon-github" viewBox="0 0 32 32">
<path d="M16 0c8.837 0 16 7.344 16 16.405 0 7.246-4.579 13.394-10.933 15.565-0.811 0.162-1.099-0.35-1.099-0.787 0-0.541 0.019-2.307 0.019-4.502 0-1.53-0.512-2.528-1.086-3.037 3.563-0.406 7.307-1.794 7.307-8.094 0-1.792-0.621-3.254-1.648-4.403 0.166-0.414 0.715-2.083-0.157-4.342 0 0-1.341-0.44-4.395 1.682-1.201-0.348-2.58-0.549-4.006-0.552h-0.002c-1.427 0.003-2.805 0.204-4.111 0.578l0.106-0.026c-3.058-2.122-4.402-1.682-4.402-1.682-0.869 2.259-0.32 3.928-0.155 4.342-1.022 1.149-1.648 2.611-1.648 4.403 0 6.285 3.736 7.693 7.29 8.107-0.458 0.41-0.872 1.133-1.016 2.194-0.912 0.419-3.229 1.144-4.656-1.363 0 0-0.846-1.576-2.453-1.691 0 0-1.56-0.021-0.109 0.997 0 0 1.048 0.504 1.776 2.4 0 0 0.939 2.928 5.39 1.936 0.008 1.371 0.022 2.664 0.022 3.054 0 0.434-0.294 0.941-1.093 0.789-6.358-2.168-10.942-8.318-10.942-15.566 0-9.061 7.165-16.405 16-16.405z"></path>
</symbol>
<symbol id="icon-gmail" viewBox="0 0 32 32">
<path d="M30.996 7.824v17.382c0 1.129-0.915 2.044-2.044 2.044v0h-4.773v-11.587l-8.179 6.136-8.179-6.136v11.588h-4.772c-1.129 0-2.044-0.915-2.044-2.044v0-17.383c0-0 0-0 0-0 0-1.694 1.373-3.067 3.067-3.067 0.697 0 1.34 0.233 1.856 0.625l-0.008-0.005 10.080 7.561 10.088-7.567c0.506-0.383 1.146-0.613 1.84-0.613 1.694 0 3.067 1.373 3.067 3.067 0 0 0 0 0 0v0z"></path>
</symbol>
<symbol id="icon-google" viewBox="0 0 32 32">
<path d="M15.329 1.544c0.264 0.163 0.559 0.402 0.888 0.716 0.316 0.328 0.626 0.73 0.929 1.207 0.288 0.451 0.547 0.982 0.771 1.596 0.184 0.614 0.276 1.329 0.276 2.148-0.025 1.5-0.356 2.701-0.994 3.601-0.313 0.437-0.643 0.839-0.993 1.208-0.388 0.369-0.799 0.743-1.237 1.125-0.251 0.259-0.483 0.552-0.694 0.88-0.251 0.341-0.375 0.737-0.375 1.186 0 0.437 0.128 0.798 0.384 1.085 0.217 0.274 0.43 0.512 0.635 0.717l1.423 1.166c0.884 0.724 1.66 1.521 2.327 2.395 0.628 0.886 0.954 2.046 0.981 3.478 0 2.032-0.898 3.832-2.692 5.401-1.862 1.623-4.547 2.462-8.057 2.517-2.938-0.028-5.131-0.654-6.58-1.879-1.463-1.144-2.194-2.512-2.194-4.104 0-0.777 0.238-1.641 0.714-2.594 0.461-0.954 1.297-1.791 2.507-2.511 1.357-0.777 2.787-1.294 4.281-1.553 1.48-0.217 2.71-0.34 3.689-0.367-0.303-0.397-0.572-0.823-0.809-1.276-0.276-0.439-0.415-0.966-0.415-1.584 0-0.371 0.053-0.679 0.158-0.926 0.092-0.26 0.179-0.501 0.257-0.719-0.476 0.055-0.926 0.082-1.348 0.082-2.232-0.027-3.934-0.73-5.106-2.108-1.225-1.282-1.838-2.775-1.838-4.48 0-2.060 0.868-3.928 2.604-5.606 1.193-0.981 2.433-1.623 3.719-1.923 1.272-0.259 2.465-0.388 3.577-0.388h8.389l-2.591 1.513h-2.586zM16.949 25.69c0-1.064-0.347-1.992-1.042-2.783-0.735-0.75-1.882-1.671-3.445-2.763-0.267-0.027-0.582-0.041-0.942-0.041-0.214-0.028-0.76 0-1.643 0.083-0.869 0.122-1.756 0.32-2.664 0.593-0.214 0.083-0.515 0.204-0.901 0.37-0.388 0.176-0.781 0.429-1.182 0.756-0.388 0.341-0.714 0.764-0.982 1.269-0.307 0.532-0.462 1.173-0.462 1.924 0 1.473 0.668 2.686 2.005 3.642 1.269 0.955 3.004 1.446 5.208 1.474 1.977-0.028 3.486-0.464 4.528-1.31 1.016-0.833 1.522-1.903 1.522-3.213zM11.102 13.394c1.103-0.041 2.024-0.437 2.759-1.189 0.355-0.533 0.582-1.080 0.685-1.641 0.062-0.56 0.093-1.031 0.093-1.414 0-1.654-0.423-3.322-1.27-5.003-0.397-0.806-0.918-1.462-1.566-1.967-0.66-0.478-1.42-0.731-2.281-0.759-1.135 0.027-2.081 0.485-2.834 1.374-0.635 0.929-0.94 1.968-0.911 3.116 0 1.517 0.444 3.095 1.331 4.736 0.43 0.766 0.986 1.414 1.665 1.948s1.457 0.8 2.331 0.8zM31.873 4.612h-4.402v-4.402h-2.133v4.402h-4.402v2.133h4.402v4.402h2.133v-4.402h4.402v-2.133z"></path>
</symbol>
<symbol id="icon-heart" viewBox="0 0 32 32">
<path stroke-linejoin="round" stroke-linecap="round" stroke-miterlimit="4" stroke-width="2" d="M9.334 4c-3.682 0-6.668 2.954-6.668 6.6 0 2.942 1.168 9.926 12.652 16.986 0.194 0.12 0.43 0.191 0.682 0.191s0.488-0.071 0.688-0.194l-0.006 0.003c11.484-7.060 12.652-14.044 12.652-16.986 0-3.646-2.986-6.6-6.668-6.6-3.68 0-6.666 4-6.666 4s-2.986-4-6.666-4z"></path>
</symbol>
<symbol id="icon-heart-menu" viewBox="0 0 32 32">
<path stroke-linejoin="round" stroke-linecap="round" stroke-miterlimit="4" stroke-width="1.7778" d="M27.787 6.146c-1.327-1.328-3.161-2.149-5.187-2.149s-3.859 0.821-5.187 2.149l-1.413 1.413-1.413-1.413c-1.325-1.315-3.151-2.128-5.166-2.128-4.051 0-7.335 3.284-7.335 7.335 0 2.015 0.813 3.841 2.128 5.167l11.786 11.786 11.787-11.787c1.328-1.327 2.149-3.161 2.149-5.187s-0.821-3.859-2.149-5.187l-0-0z"></path>
</symbol>
<symbol id="icon-home" viewBox="0 0 32 32">
<path stroke-linejoin="round" stroke-linecap="round" stroke-miterlimit="4" stroke-width="1.7778" d="M4 12l12-9.333 12 9.333v14.667c0 1.473-1.194 2.667-2.667 2.667v0h-18.667c-1.473 0-2.667-1.194-2.667-2.667v0-14.667z"></path>
<path stroke-linejoin="round" stroke-linecap="round" stroke-miterlimit="4" stroke-width="1.7778" d="M12 29.333v-13.333h8v13.333"></path>
</symbol>
<symbol id="icon-humidity" viewBox="0 0 32 32">
<path d="M8.064 18.336c0-0.939 0.256-2.016 0.768-3.232s1.173-2.4 1.984-3.531c1.664-2.197 3.115-3.861 4.331-4.981l0.8-0.768c0.267 0.277 0.565 0.533 0.885 0.768 0.437 0.448 1.109 1.184 2.005 2.229s1.675 1.973 2.315 2.827c0.757 1.077 1.408 2.24 1.931 3.467s0.789 2.304 0.789 3.232c0 1.067-0.203 2.080-0.619 3.051s-0.971 1.813-1.675 2.517c-0.704 0.704-1.547 1.269-2.528 1.685s-2.016 0.629-3.104 0.629c-1.067 0-2.080-0.203-3.051-0.608s-1.813-0.949-2.517-1.653c-0.704-0.693-1.269-1.536-1.685-2.507s-0.629-2.016-0.629-3.125zM10.475 15.211c0 0.885 0.181 1.589 0.555 2.123 0.373 0.523 0.939 0.789 1.696 0.789 0.768 0 1.333-0.267 1.717-0.789 0.373-0.523 0.565-1.227 0.576-2.123-0.011-0.896-0.203-1.6-0.576-2.133-0.373-0.523-0.949-0.789-1.717-0.789-0.757 0-1.323 0.267-1.696 0.789-0.373 0.533-0.555 1.237-0.555 2.133zM12.149 15.211v-0.373c0-0.085 0.011-0.203 0.021-0.352s0.021-0.267 0.053-0.341 0.053-0.171 0.096-0.256c0.043-0.085 0.096-0.16 0.16-0.192 0.075-0.043 0.149-0.064 0.245-0.064 0.149 0 0.267 0.043 0.352 0.128s0.149 0.224 0.181 0.405c0.032 0.192 0.053 0.341 0.064 0.48s0.011 0.32 0.011 0.555c0 0.245 0 0.427-0.011 0.555s-0.032 0.288-0.064 0.48c-0.032 0.181-0.096 0.32-0.181 0.405s-0.203 0.128-0.352 0.128c-0.096 0-0.171-0.021-0.245-0.064s-0.131-0.11-0.159-0.189l-0.001-0.003c-0.043-0.085-0.075-0.181-0.096-0.256-0.021-0.085-0.043-0.203-0.053-0.341-0.011-0.149-0.021-0.267-0.021-0.341v-0.363zM12.779 23.477h1.408l5.323-11.456h-1.44l-5.291 11.456zM17.365 20.288c0.011 0.896 0.213 1.6 0.587 2.133 0.373 0.523 0.949 0.789 1.707 0.789 0.768 0 1.333-0.267 1.707-0.789s0.555-1.237 0.565-2.133c-0.011-0.896-0.192-1.6-0.565-2.123s-0.939-0.789-1.707-0.789c-0.757 0-1.333 0.267-1.707 0.789-0.384 0.523-0.576 1.227-0.587 2.123zM19.040 20.288c0-0.245 0-0.427 0.011-0.555s0.032-0.288 0.064-0.48 0.096-0.32 0.181-0.405 0.203-0.128 0.352-0.128c0.096 0 0.181 0.021 0.256 0.064s0.128 0.107 0.171 0.203c0.043 0.096 0.075 0.181 0.107 0.256s0.043 0.192 0.053 0.341l0.011 0.341v0.736l-0.011 0.341-0.053 0.341-0.107 0.256-0.171 0.203-0.256 0.064c-0.149 0-0.267-0.043-0.352-0.128s-0.149-0.224-0.181-0.405c-0.032-0.192-0.053-0.352-0.064-0.48s-0.011-0.32-0.011-0.565z"></path>
</symbol>
<symbol id="icon-linkedin" viewBox="0 0 32 32">
<path d="M7.282 31.264v-20.598h-6.846v20.598l6.846 0zM3.859 7.855c2.386 0 3.873-1.583 3.873-3.56-0.045-2.021-1.487-3.559-3.828-3.559s-3.873 1.538-3.873 3.559c0 1.977 1.486 3.56 3.783 3.56h0.045v-0zM11.070 31.264s0.090-18.665 0-20.598h6.847v2.987h-0.045c0.9-1.406 2.522-3.471 6.215-3.471 4.505 0 7.882 2.944 7.882 9.271v11.811h-6.846v-11.019c0-2.769-0.991-4.658-3.469-4.658-1.891 0-3.018 1.274-3.513 2.505-0.181 0.438-0.225 1.054-0.225 1.669v11.503h-6.847z"></path>
</symbol>
<symbol id="icon-location" viewBox="0 0 32 32">
<path d="M16 2.001c-6.072 0.007-10.992 4.927-11 10.998v0.001c0 0.005 0 0.011 0 0.017 0 2.486 0.833 4.777 2.236 6.61l-0.019-0.026s0.3 0.395 0.348 0.45l8.435 9.95 8.439-9.953c0.044-0.053 0.345-0.447 0.345-0.447l0.001-0.004c1.383-1.806 2.216-4.098 2.216-6.583 0-0.005 0-0.009 0-0.014v0.001c-0.007-6.072-4.928-10.993-11-11h-0.001zM16 17c-2.209 0-4-1.791-4-4s1.791-4 4-4v0c2.209 0 4 1.791 4 4s-1.791 4-4 4v0z"></path>
</symbol>
<symbol id="icon-logo" viewBox="0 0 32 32">
<path d="M27.34 3.865l0.252 0.168c-0.084 0.364-0.252 0.742-0.504 1.135-0.224 0.392-0.49 0.756-0.799 1.093-0.307 0.335-0.637 0.638-0.99 0.911l-0.018 0.014c-0.364 0.252-0.728 0.449-1.093 0.588v15.804c0.532-0.392 1.331-1.317 2.396-2.774 0 4.483-2.298 7.594-6.893 9.331-1.429 0.532-2.732 0.799-3.909 0.799-1.85 0-3.362-0.224-4.539-0.673-2.046-0.813-3.643-2.046-4.792-3.699s-1.723-3.587-1.723-5.8v-0.168l0.042-0.042c0-2.998 0.952-5.786 2.858-8.364 1.401-2.018 3.138-3.152 5.212-3.405-2.578 2.886-3.867 5.604-3.867 8.154 0 1.345 0.182 2.578 0.546 3.699 0.364 1.093 0.911 2.088 1.639 2.984v-0.042c1.597 1.933 3.643 2.9 6.136 2.9h0.042l0.084-0.042c1.989 0 3.727-0.518 5.212-1.555v-16.476h-0.084c-0.224 0.084-0.406 0.126-0.546 0.126-0.252 0.112-0.924 0.168-2.018 0.168l-0.042 0.042h-0.126c-0.56 0-1.093-0.014-1.597-0.042-0.477-0.028-0.924-0.070-1.345-0.126-0.112-0.028-0.294-0.056-0.546-0.084-0.224-0.056-0.532-0.112-0.925-0.168-0.308-0.056-0.659-0.112-1.051-0.168-0.392-0.084-0.841-0.168-1.345-0.252-1.485-0.28-2.76-0.42-3.825-0.42h-0.21c-0.112 0.028-0.434 0.042-0.967 0.042-1.261 0.14-2.312 0.785-3.152 1.933v-0.546c0-0.645 0.252-1.387 0.756-2.228 1.429-2.242 3.629-3.376 6.599-3.405l0.21-0.084c0.925 0.056 2.438 0.224 4.539 0.504l2.312 0.42c0.14 0.056 0.336 0.112 0.588 0.168 0.28 0.056 0.631 0.112 1.051 0.168l0.883 0.084 0.883 0.126h1.051l0.042-0.042h0.588l0.042 0.042c1.149 0 2.129-0.266 2.942-0.799zM19.564 20.509c0 1.093-0.546 2.143-1.639 3.152-1.037 0.952-2.129 1.429-3.279 1.429h-0.252v-0.042h-0.378l0.294-0.336v-0.126l0.084-0.042c0-0.056 0.014-0.098 0.042-0.126l0.126-0.126c0-0.112 0.070-0.238 0.21-0.378v-0.126l0.042-0.042v-0.084l0.042-0.042v-10.424l-1.219 0.588v-1.723l5.044-2.942h0.883v11.391z"></path>
</symbol>
<symbol id="icon-manage" viewBox="0 0 32 32">
<path d="M7 8.050v-2.55c0-0.276-0.224-0.5-0.5-0.5s-0.5 0.224-0.5 0.5v0 2.55c-1.694 0.245-3 1.688-3 3.45s1.306 3.205 3 3.45v11.55c0 0.276 0.224 0.5 0.5 0.5s0.5-0.224 0.5-0.5v0-11.55c1.694-0.245 3-1.688 3-3.45s-1.306-3.205-3-3.45zM6.5 14c-1.38-0.002-2.498-1.12-2.5-2.5v-0c0-1.379 1.122-2.5 2.5-2.5s2.5 1.121 2.5 2.5c0 1.378-1.122 2.5-2.5 2.5zM16 17.050v-11.55c0-0.276-0.224-0.5-0.5-0.5s-0.5 0.224-0.5 0.5v0 11.55c-1.694 0.245-3 1.688-3 3.45s1.306 3.205 3 3.45v2.55c0 0.276 0.224 0.5 0.5 0.5s0.5-0.224 0.5-0.5v0-2.55c1.694-0.245 3-1.688 3-3.45s-1.306-3.205-3-3.45zM15.5 23c-1.38-0.002-2.498-1.12-2.5-2.5v-0c0-1.379 1.122-2.5 2.5-2.5s2.5 1.121 2.5 2.5c0 1.378-1.122 2.5-2.5 2.5zM28 14.5c-0.003-1.752-1.297-3.202-2.981-3.448l-0.019-0.002v-5.55c0-0.276-0.224-0.5-0.5-0.5s-0.5 0.224-0.5 0.5v0 5.55c-1.694 0.245-3 1.688-3 3.45s1.306 3.205 3 3.45v8.55c0 0.276 0.224 0.5 0.5 0.5s0.5-0.224 0.5-0.5v0-8.55c1.703-0.248 2.997-1.698 3-3.45v-0zM24.5 17c-1.38-0.002-2.498-1.12-2.5-2.5v-0c0-1.379 1.122-2.5 2.5-2.5s2.5 1.121 2.5 2.5c0 1.378-1.122 2.5-2.5 2.5z"></path>
</symbol>
<symbol id="icon-moon" viewBox="0 0 32 32">
<path stroke-linejoin="round" stroke-linecap="round" stroke-miterlimit="4" stroke-width="2.2857" d="M28 17.053c-0.584 6.134-5.71 10.893-11.947 10.893-6.627 0-11.998-5.372-11.998-11.998 0-6.237 4.759-11.363 10.845-11.944l0.048-0.004c-1.141 1.53-1.827 3.458-1.827 5.546 0 5.155 4.179 9.333 9.333 9.333 2.088 0 4.016-0.686 5.571-1.844l-0.025 0.018z"></path>
</symbol>
<symbol id="icon-open-book" viewBox="0 0 32 32">
<path stroke-linejoin="round" stroke-linecap="round" stroke-miterlimit="4" stroke-width="1.7778" d="M2.667 4h8c2.946 0 5.333 2.388 5.333 5.333v0 18.667c0-2.209-1.791-4-4-4v0h-9.333v-20zM29.333 4h-8c-2.946 0-5.333 2.388-5.333 5.333v0 18.667c0-2.209 1.791-4 4-4v0h9.333v-20z"></path>
</symbol>
<symbol id="icon-password" viewBox="0 0 32 32">
<path d="M22.215 25.113l1.237-1.872c0.090-0.135 0.144-0.3 0.144-0.479 0-0.32-0.173-0.599-0.43-0.75l-0.004-0.002-3.209-1.853v-3.826c2.784-1.437 4.692-4.343 4.692-7.686 0-4.767-3.878-8.645-8.644-8.645s-8.644 3.878-8.644 8.644c0 3.343 1.908 6.249 4.692 7.686v13.238c0 0.336 0.191 0.628 0.471 0.772l0.005 0.002 3.085 1.563c0.114 0.059 0.249 0.094 0.392 0.094s0.278-0.035 0.397-0.096l-0.005 0.002 3.085-1.563c0.013-0.007 0.025-0.016 0.038-0.023 0.001-0.001 0.002-0.001 0.003-0.002l3.643-2.104c0.261-0.153 0.434-0.432 0.434-0.752 0-0.178-0.054-0.344-0.146-0.482l0.002 0.003-1.237-1.872zM16 1.871c1.64 0 2.974 1.334 2.974 2.974s-1.334 2.974-2.974 2.974-2.974-1.334-2.974-2.974 1.334-2.974 2.974-2.974zM18.216 20.658v8.377l-1.348 0.683v-7.112c0-0.48-0.389-0.868-0.868-0.868s-0.868 0.389-0.868 0.868v7.112l-1.348-0.683v-12.033h0c0.221 0.059 0.444 0.107 0.669 0.148l0.037 0.007c0.062 0.011 0.123 0.021 0.185 0.031 0.015 0.002 0.031 0.005 0.046 0.007 0.111 0.016 0.222 0.031 0.333 0.043 0.022 0.002 0.045 0.005 0.067 0.008 0.042 0.004 0.085 0.008 0.127 0.011 0.044 0.004 0.088 0.008 0.133 0.011 0.065 0.005 0.16 0.010 0.255 0.014l0.018 0.001c0.030 0.001 0.060 0.003 0.090 0.003 0.085 0.002 0.17 0.004 0.255 0.004s0.17-0.002 0.255-0.004c0.030-0.001 0.060-0.002 0.090-0.003 0.114-0.005 0.208-0.010 0.303-0.017l-0.030 0.002c0.044-0.003 0.089-0.007 0.133-0.011 0.042-0.004 0.085-0.007 0.127-0.011 0.022-0.002 0.045-0.005 0.067-0.008 0.111-0.012 0.223-0.026 0.333-0.043 0.015-0.002 0.031-0.004 0.046-0.007 0.124-0.018 0.199-0.032 0.275-0.046l-0.052 0.008c0.282-0.050 0.507-0.102 0.729-0.162l-0.060 0.014v3.656zM16 15.552c-3.809 0-6.908-3.099-6.908-6.908 0-2.1 0.943-3.983 2.428-5.251-0.146 0.433-0.23 0.932-0.23 1.451 0 0 0 0.001 0 0.001v-0c0 2.597 2.113 4.711 4.711 4.711s4.711-2.113 4.711-4.711c0-0 0-0.001 0-0.001 0-0.519-0.084-1.018-0.24-1.484l0.010 0.033c1.484 1.268 2.427 3.151 2.427 5.251-0 3.809-3.099 6.908-6.908 6.908zM20.45 25.591l1.045 1.581-1.542 0.89v-5.901l1.542 0.89-1.045 1.581c-0.090 0.135-0.144 0.3-0.144 0.479s0.054 0.344 0.146 0.482l-0.002-0.003z"></path>
<path d="M16.851 19.832c-0.010-0.056-0.028-0.11-0.049-0.162s-0.049-0.103-0.080-0.15c-0.031-0.048-0.068-0.092-0.108-0.132s-0.084-0.076-0.132-0.108c-0.089-0.060-0.194-0.105-0.307-0.128l-0.006-0.001c-0.051-0.011-0.109-0.017-0.169-0.017s-0.118 0.006-0.175 0.018l0.006-0.001c-0.118 0.024-0.223 0.069-0.316 0.131l0.003-0.002c-0.048 0.031-0.092 0.068-0.132 0.108-0.157 0.157-0.254 0.374-0.254 0.614v0c0.001 0.24 0.098 0.456 0.254 0.614l-0-0c0.079 0.079 0.172 0.143 0.277 0.186l0.006 0.002c0.097 0.042 0.21 0.066 0.329 0.066 0.001 0 0.002 0 0.003 0h-0c0.228 0 0.452-0.092 0.614-0.254 0.157-0.157 0.254-0.374 0.254-0.614v-0c-0-0.060-0.006-0.118-0.018-0.175l0.001 0.006z"></path>
</symbol>
<symbol id="icon-pressure" viewBox="0 0 32 32">
<path d="M16 12c-0.736 0-1.333 0.597-1.333 1.333v0 7.024c-0.803 0.47-1.333 1.328-1.333 2.309 0 1.473 1.194 2.667 2.667 2.667v0c1.473-0 2.667-1.194 2.667-2.667 0-0.982-0.531-1.84-1.321-2.303l-0.013-0.007v-7.024c0-0.736-0.597-1.333-1.333-1.333v0zM14.667 8c0-0.736 0.597-1.333 1.333-1.333s1.333 0.597 1.333 1.333v0c0 0.736-0.597 1.333-1.333 1.333s-1.333-0.597-1.333-1.333v0zM21.333 9.333c-0.736 0-1.333 0.597-1.333 1.333s0.597 1.333 1.333 1.333v0c0.736 0 1.333-0.597 1.333-1.333s-0.597-1.333-1.333-1.333v0zM8 17.333c-0.736 0-1.333-0.597-1.333-1.333s0.597-1.333 1.333-1.333v0c0.736 0 1.333 0.597 1.333 1.333s-0.597 1.333-1.333 1.333v0zM9.333 10.667c0 0.736 0.597 1.333 1.333 1.333s1.333-0.597 1.333-1.333v0c0-0.736-0.597-1.333-1.333-1.333s-1.333 0.597-1.333 1.333v0zM24 17.333c-0.736 0-1.333-0.597-1.333-1.333s0.597-1.333 1.333-1.333v0c0.736 0 1.333 0.597 1.333 1.333s-0.597 1.333-1.333 1.333v0z"></path>
<path d="M16 30.667c8.1 0 14.667-6.567 14.667-14.667s-6.567-14.667-14.667-14.667-14.667 6.567-14.667 14.667 6.567 14.667 14.667 14.667zM16 27.991c-6.622 0-11.991-5.368-11.991-11.991s5.368-11.991 11.991-11.991v0c6.622 0 11.991 5.368 11.991 11.991s-5.368 11.991-11.991 11.991v0z"></path>
</symbol>
<symbol id="icon-reset" viewBox="0 0 32 32">
<path d="M32 12h-12l4.485-4.485c-2.267-2.266-5.28-3.515-8.485-3.515s-6.219 1.248-8.485 3.515c-2.266 2.267-3.515 5.28-3.515 8.485s1.248 6.219 3.515 8.485c2.267 2.266 5.28 3.515 8.485 3.515s6.219-1.248 8.485-3.515c0.189-0.189 0.371-0.384 0.546-0.583l3.010 2.634c-2.933 3.349-7.239 5.464-12.041 5.464-8.837 0-16-7.163-16-16s7.163-16 16-16c4.418 0 8.418 1.791 11.313 4.687l4.687-4.687v12z"></path>
</symbol>
<symbol id="icon-search" viewBox="0 0 32 32">
<path d="M13.464 23.726c2.38-0.001 4.569-0.817 6.303-2.183l-0.022 0.017 5.64 5.64 1.814-1.814-5.64-5.638c1.351-1.714 2.166-3.904 2.166-6.285v-0c-0.007-5.665-4.598-10.255-10.262-10.262h-0.001c-5.666 0.006-10.257 4.597-10.264 10.262v0.001c0.006 5.666 4.598 10.258 10.263 10.264h0.001zM13.464 5.766c4.248 0.005 7.691 3.448 7.696 7.695v0.001c-0.005 4.249-3.447 7.692-7.695 7.698h-0.001c-4.249-0.005-7.692-3.447-7.698-7.695v-0.001c0.005-4.249 3.447-7.692 7.695-7.698h0.001z"></path>
</symbol>
<symbol id="icon-signout" viewBox="0 0 32 32">
<path d="M15.040 13.279c0 0.53 0.43 0.96 0.96 0.96s0.96-0.43 0.96-0.96h-1.92zM16.96 5.76c0-0.53-0.43-0.96-0.96-0.96s-0.96 0.43-0.96 0.96h1.92zM12.558 9.167c0.483-0.22 0.696-0.789 0.476-1.272s-0.789-0.696-1.272-0.476l0.796 1.747zM7.040 16.205l-0.96-0.005 0 0.016 0.96-0.011zM16 24.96l0.011-0.96c-0.007 0-0.015 0-0.022 0l0.011 0.96zM24.96 16.205l0.96 0.011-0-0.016-0.96 0.005zM20.238 7.419c-0.483-0.22-1.052-0.007-1.272 0.476s-0.007 1.052 0.476 1.272l0.796-1.747zM16.96 13.279v-7.519h-1.92v7.519h1.92zM11.762 7.419c-3.444 1.568-5.662 4.996-5.682 8.78l1.92 0.010c0.016-3.036 1.795-5.785 4.558-7.043l-0.796-1.747zM6.080 16.216c0.063 5.422 4.509 9.766 9.931 9.704l-0.022-1.92c-4.362 0.050-7.938-3.445-7.989-7.806l-1.92 0.022zM15.989 25.92c5.422 0.062 9.868-4.282 9.931-9.704l-1.92-0.022c-0.051 4.362-3.627 7.857-7.989 7.806l-0.022 1.92zM25.92 16.2c-0.020-3.784-2.238-7.212-5.682-8.78l-0.796 1.747c2.763 1.258 4.542 4.007 4.558 7.043l1.92-0.010z"></path>
</symbol>
<symbol id="icon-sun" viewBox="0 0 32 32">
<path stroke-linejoin="round" stroke-linecap="round" stroke-miterlimit="4" stroke-width="2.2857" d="M16 1.778v2.586M16 27.636v2.586M5.943 5.943l1.836 1.836M24.224 24.224l1.836 1.836M1.778 16h2.586M27.636 16h2.586M5.943 26.059l1.836-1.836M24.222 7.778l1.836-1.836M22.466 16c0 3.57-2.894 6.465-6.465 6.465s-6.465-2.894-6.465-6.465v0c0-3.57 2.894-6.465 6.465-6.465s6.465 2.894 6.465 6.465v0z"></path>
</symbol>
<symbol id="icon-sunrise" viewBox="0 0 32 32">
<path d="M1.301 16.432c0-0.3 0.12-0.576 0.36-0.828 0.264-0.228 0.552-0.348 0.84-0.348h2.796c0.324 0 0.588 0.12 0.804 0.348s0.324 0.516 0.324 0.828c0 0.348-0.108 0.636-0.324 0.864-0.198 0.214-0.48 0.348-0.794 0.348-0.003 0-0.007 0-0.010-0h-2.795c-0.324 0-0.6-0.12-0.84-0.36-0.24-0.252-0.36-0.54-0.36-0.852zM5.297 6.857c0-0.324 0.108-0.6 0.312-0.816 0.276-0.24 0.552-0.36 0.852-0.36 0.312 0 0.588 0.12 0.816 0.348l1.968 1.98c0.228 0.264 0.336 0.54 0.336 0.828 0 0.336-0.108 0.624-0.324 0.84s-0.48 0.336-0.792 0.336c-0.288 0-0.576-0.12-0.84-0.348l-2.016-1.932c-0.204-0.252-0.312-0.552-0.312-0.876zM7.696 23.056c0-0.336 0.12-0.612 0.348-0.816 0.216-0.204 0.48-0.312 0.816-0.312h3.156l3.732-3.504c0.12-0.096 0.252-0.096 0.408 0l3.792 3.504h3.324c0.324 0 0.6 0.108 0.828 0.336 0.214 0.198 0.348 0.48 0.348 0.794 0 0.003 0 0.007-0 0.010v-0c0 0.324-0.12 0.6-0.348 0.828s-0.504 0.348-0.828 0.348h-4.056c-0.12 0-0.24-0.024-0.348-0.084l-2.892-2.724-2.868 2.724c-0.096 0.060-0.204 0.084-0.336 0.084h-3.912c-0.643-0.003-1.164-0.525-1.164-1.169 0-0.007 0-0.014 0-0.020v0.001zM8.8 16.432c0 1.164 0.252 2.22 0.744 3.168 0.024 0.144 0.132 0.216 0.3 0.216h2.256c0.084 0 0.144-0.036 0.18-0.096 0.036-0.072 0.024-0.144-0.024-0.228-0.768-0.924-1.152-1.944-1.152-3.060 0-1.344 0.48-2.496 1.44-3.444s2.112-1.416 3.468-1.416c1.344 0 2.484 0.468 3.432 1.416s1.428 2.088 1.428 3.444c0 1.128-0.384 2.148-1.14 3.060-0.048 0.084-0.060 0.156-0.036 0.228s0.084 0.096 0.18 0.096h2.28c0.156 0 0.252-0.072 0.276-0.216 0.528-0.924 0.768-1.98 0.768-3.168 0-0.972-0.192-1.908-0.576-2.784-0.384-0.888-0.9-1.644-1.536-2.292-0.642-0.636-1.402-1.153-2.244-1.518l-0.047-0.018c-0.888-0.384-1.812-0.564-2.784-0.564s-1.908 0.192-2.796 0.564c-0.888 0.384-1.656 0.888-2.304 1.536-1.304 1.296-2.112 3.091-2.112 5.074 0 0 0 0.001 0 0.002v-0zM14.836 5.681v-2.76c0-0.348 0.108-0.624 0.336-0.852s0.516-0.336 0.852-0.336c0.336 0 0.612 0.108 0.84 0.336s0.336 0.528 0.336 0.864v2.76c0 0.348-0.108 0.624-0.336 0.852-0.216 0.216-0.504 0.336-0.84 0.336-0.013 0-0.028 0.001-0.043 0.001-0.316 0-0.602-0.129-0.809-0.337l-0-0c-0.208-0.211-0.337-0.5-0.337-0.82 0-0.016 0-0.031 0.001-0.046l-0 0.002zM22.456 8.848c0-0.3 0.108-0.576 0.324-0.828l1.944-1.98c0.228-0.228 0.516-0.348 0.84-0.348s0.612 0.12 0.828 0.348c0.228 0.228 0.336 0.504 0.336 0.828 0 0.348-0.108 0.636-0.312 0.876l-2.016 1.932c-0.252 0.228-0.54 0.348-0.84 0.348-0.324 0-0.588-0.108-0.792-0.336s-0.312-0.504-0.312-0.84zM25.587 16.432c0-0.324 0.108-0.6 0.324-0.828s0.48-0.348 0.792-0.348h2.82c0.324 0 0.6 0.12 0.828 0.348 0.215 0.215 0.348 0.512 0.348 0.84s-0.133 0.625-0.348 0.84v0c-0.228 0.24-0.504 0.36-0.828 0.36h-2.82c-0.324 0-0.588-0.12-0.804-0.348-0.204-0.24-0.312-0.528-0.312-0.864z"></path>
</symbol>
<symbol id="icon-sunset" viewBox="0 0 32 32">
<path d="M1.657 16.556c0-0.331 0.118-0.592 0.355-0.805 0.201-0.213 0.473-0.308 0.805-0.308h2.734c0.009-0 0.021-0 0.032-0 0.591 0 1.070 0.479 1.070 1.070 0 0.015-0 0.030-0.001 0.045l0-0.002c0 0.331-0.106 0.615-0.32 0.84s-0.473 0.343-0.781 0.343h-2.722c-0.32 0-0.592-0.118-0.816-0.355-0.237-0.237-0.355-0.509-0.355-0.828zM5.551 7.255c0-0.331 0.095-0.604 0.296-0.805 0.237-0.237 0.509-0.355 0.828-0.355 0.343 0 0.604 0.118 0.805 0.355l1.917 1.929c0.544 0.521 0.544 1.053 0 1.598-0.191 0.204-0.461 0.331-0.762 0.331-0.003 0-0.005 0-0.008-0h0c-0.26 0-0.521-0.106-0.805-0.331l-1.964-1.917c-0.191-0.203-0.308-0.477-0.308-0.778 0-0.009 0-0.019 0-0.028l-0 0.001zM7.882 22.97c0-0.308 0.118-0.58 0.355-0.816 0.213-0.213 0.485-0.32 0.805-0.32h3.81c0.13 0 0.237 0.024 0.331 0.095l2.781 2.627 2.828-2.639c0.083-0.059 0.201-0.095 0.343-0.095h3.905c0.32 0 0.592 0.106 0.816 0.331s0.343 0.497 0.343 0.805c0 0.32-0.118 0.592-0.343 0.816s-0.497 0.343-0.816 0.343h-3.171l-3.716 3.361c-0.142 0.106-0.272 0.106-0.391 0l-3.645-3.361h-3.077c-0.32 0-0.592-0.118-0.816-0.343-0.211-0.196-0.343-0.476-0.343-0.786 0-0.006 0-0.013 0-0.019v0.001zM8.994 16.556c0 1.172 0.225 2.213 0.686 3.1 0.071 0.13 0.178 0.189 0.32 0.189h2.213c0.095 0 0.154-0.024 0.178-0.083s-0.012-0.13-0.083-0.213c-0.698-0.876-1.053-1.882-1.053-2.994 0-1.302 0.461-2.414 1.396-3.325s2.059-1.373 3.373-1.373c1.302 0 2.414 0.461 3.349 1.373 0.923 0.923 1.396 2.024 1.396 3.314 0 1.112-0.355 2.118-1.053 2.994-0.083 0.083-0.106 0.154-0.083 0.213s0.083 0.083 0.177 0.083h2.225c0.154 0 0.249-0.059 0.284-0.189 0.485-0.923 0.734-1.964 0.734-3.1 0-0.935-0.189-1.846-0.556-2.71s-0.876-1.621-1.503-2.248-1.373-1.124-2.237-1.503c-0.788-0.352-1.708-0.556-2.675-0.556-0.016 0-0.033 0-0.049 0h0.003c-0.947 0-1.858 0.189-2.722 0.556-0.864 0.379-1.609 0.876-2.237 1.503s-1.124 1.373-1.503 2.248-0.58 1.787-0.58 2.722zM14.864 6.131v-2.757c0-0.32 0.118-0.592 0.343-0.816s0.497-0.343 0.816-0.343c0.32 0 0.592 0.118 0.816 0.343s0.343 0.497 0.343 0.816v2.745c0 0.32-0.118 0.592-0.343 0.816s-0.497 0.343-0.816 0.343c-0.32 0-0.592-0.118-0.816-0.343-0.211-0.193-0.344-0.469-0.344-0.776 0-0.010 0-0.020 0-0.030l-0 0.001zM22.284 9.184c0-0.331 0.106-0.604 0.308-0.793l1.929-1.929c0.189-0.237 0.461-0.355 0.805-0.355 0.32 0 0.592 0.118 0.805 0.343s0.32 0.497 0.32 0.816c0 0.331-0.095 0.604-0.296 0.805l-1.964 1.929c-0.272 0.225-0.544 0.331-0.816 0.331-0.007 0-0.016 0-0.024 0-0.299 0-0.568-0.127-0.756-0.331l-0.001-0.001c-0.201-0.225-0.308-0.497-0.308-0.816zM25.349 16.556c0-0.32 0.106-0.58 0.308-0.793s0.473-0.32 0.793-0.32h2.745c0.32 0 0.592 0.106 0.816 0.32s0.343 0.473 0.343 0.793-0.118 0.592-0.343 0.828c-0.225 0.237-0.497 0.355-0.816 0.355h-2.745c-0.308 0-0.568-0.118-0.781-0.343-0.198-0.211-0.32-0.495-0.32-0.808 0-0.011 0-0.022 0-0.034l-0 0.002z"></path>
</symbol>
<symbol id="icon-telegram" viewBox="0 0 32 32">
<path d="M30.816 5.992c0.424-2.067-1.607-3.783-3.573-3.023l-24.12 9.319c-2.196 0.849-2.293 3.921-0.156 4.909l5.253 2.424 2.497 8.745c0.164 0.563 0.676 0.968 1.282 0.968 0.369 0 0.703-0.15 0.944-0.392l3.848-3.849 5.391 4.044c0.44 0.333 0.997 0.534 1.601 0.534 1.283 0 2.355-0.906 2.609-2.114l0.003-0.017 4.42-21.547zM4.084 14.776l24.12-9.32-4.421 21.548-6.316-4.737c-0.22-0.166-0.498-0.267-0.8-0.267-0.368 0-0.702 0.149-0.943 0.391l-1.648 1.648 0.495-2.724 9.707-9.705c0.241-0.241 0.391-0.575 0.391-0.943 0-0.736-0.597-1.333-1.333-1.333-0.244 0-0.472 0.065-0.669 0.18l0.006-0.003-13.405 7.659-5.184-2.392zM10.903 19.305l0.808 2.831 0.311-1.708c0.052-0.277 0.183-0.518 0.369-0.704v0l2.96-2.96-4.448 2.541z"></path>
</symbol>
<symbol id="icon-thermometer" viewBox="0 0 32 32">
<path d="M17.57 22.085v-19.446c0-1.455-1.184-2.639-2.639-2.639s-2.639 1.184-2.639 2.639v19.446c-1.649 0.943-2.665 2.673-2.672 4.585-0.005 1.372 0.53 2.685 1.506 3.696s2.27 1.591 3.641 1.632c0.055 0.002 0.11 0.002 0.166 0.002 1.389-0 2.696-0.529 3.696-1.499 1.040-1.009 1.613-2.363 1.613-3.812-0-1.921-1.016-3.657-2.672-4.604zM17.932 29.782c-0.843 0.818-1.957 1.25-3.134 1.214-1.109-0.033-2.157-0.505-2.951-1.327s-1.229-1.886-1.225-2.996c0.006-1.636 0.923-3.108 2.394-3.84 0.166-0.084 0.278-0.253 0.278-0.448 0-0 0-0 0-0v0-19.746c0-0.902 0.734-1.637 1.637-1.637s1.637 0.734 1.637 1.637v19.746c0 0 0 0 0 0 0 0.195 0.112 0.365 0.275 0.447l0.003 0.001c1.477 0.735 2.394 2.212 2.394 3.856 0 1.176-0.465 2.274-1.308 3.093z"></path>
<path d="M15.432 23.556v-17.71c0-0.277-0.224-0.501-0.501-0.501s-0.501 0.224-0.501 0.501v0 17.71c-1.512 0.241-2.672 1.554-2.672 3.133 0 1.75 1.424 3.173 3.173 3.173s3.173-1.424 3.173-3.173c0-1.579-1.16-2.892-2.672-3.133zM14.931 28.86c-1.197 0-2.171-0.974-2.171-2.171s0.974-2.171 2.171-2.171 2.171 0.974 2.171 2.171c0 1.197-0.974 2.171-2.171 2.171zM21.879 16.033h-2.672c-0.277 0-0.501 0.224-0.501 0.501s0.224 0.501 0.501 0.501h2.672c0.277 0 0.501-0.224 0.501-0.501s-0.224-0.501-0.501-0.501v0zM20.81 13.361h-1.603c-0.277 0-0.501 0.224-0.501 0.501s0.224 0.501 0.501 0.501h1.603c0.277 0 0.501-0.224 0.501-0.501s-0.224-0.501-0.501-0.501v0zM21.879 10.689h-2.672c-0.277 0-0.501 0.224-0.501 0.501s0.224 0.501 0.501 0.501h2.672c0.277 0 0.501-0.224 0.501-0.501s-0.224-0.501-0.501-0.501v0zM20.81 8.017h-1.603c-0.277 0-0.501 0.224-0.501 0.501s0.224 0.501 0.501 0.501h1.603c0.277 0 0.501-0.224 0.501-0.501s-0.224-0.501-0.501-0.501v0zM21.879 5.344h-2.672c-0.277 0-0.501 0.224-0.501 0.501s0.224 0.501 0.501 0.501h2.672c0.277 0 0.501-0.224 0.501-0.501s-0.224-0.501-0.501-0.501v0z"></path>
</symbol>
<symbol id="icon-time" viewBox="0 0 32 32">
<path d="M3.989 15.435c0-2.176 0.544-4.192 1.621-6.037s2.539-3.307 4.384-4.384 3.851-1.611 6.016-1.611c1.621 0 3.179 0.32 4.661 0.949s2.752 1.493 3.829 2.56 1.931 2.347 2.56 3.84 0.949 3.040 0.949 4.683c0 1.621-0.32 3.179-0.949 4.661s-1.493 2.763-2.56 3.829-2.347 1.92-3.829 2.549-3.029 0.949-4.661 0.949c-1.632 0-3.2-0.32-4.683-0.949s-2.763-1.493-3.84-2.56-1.92-2.347-2.56-3.819-0.939-3.029-0.939-4.661zM6.635 15.435c0 2.528 0.917 4.725 2.763 6.592 1.845 1.845 4.043 2.763 6.613 2.763 1.685 0 3.253-0.416 4.683-1.259s2.581-1.973 3.424-3.413 1.269-2.997 1.269-4.683-0.427-3.253-1.269-4.693-1.984-2.581-3.424-3.424-2.997-1.259-4.683-1.259-3.253 0.416-4.683 1.259-2.581 1.984-3.435 3.424-1.259 3.008-1.259 4.693zM15.083 15.435v-7.104c0-0.245 0.085-0.459 0.256-0.629s0.384-0.256 0.629-0.256 0.459 0.085 0.629 0.256 0.256 0.384 0.256 0.629v6.208h4.032c0.245 0 0.459 0.085 0.629 0.256s0.256 0.384 0.256 0.629c0 0.235-0.085 0.448-0.256 0.629s-0.384 0.267-0.629 0.267h-4.736c-0.032 0.011-0.096 0.011-0.192 0.011-0.005 0-0.010 0-0.016 0-0.475 0-0.86-0.385-0.86-0.86 0-0.013 0-0.026 0.001-0.038l-0 0.002z"></path>
</symbol>
<symbol id="icon-trash" viewBox="0 0 32 32">
<path d="M4 10v20c0 1.1 0.9 2 2 2h18c1.1 0 2-0.9 2-2v-20h-22zM10 28h-2v-14h2v14zM14 28h-2v-14h2v14zM18 28h-2v-14h2v14zM22 28h-2v-14h2v14z"></path>
<path d="M26.5 4h-6.5v-2.5c0-0.825-0.675-1.5-1.5-1.5h-7c-0.825 0-1.5 0.675-1.5 1.5v2.5h-6.5c-0.825 0-1.5 0.675-1.5 1.5v2.5h26v-2.5c0-0.825-0.675-1.5-1.5-1.5zM18 4h-6v-1.975h6v1.975z"></path>
</symbol>
<symbol id="icon-triangle" viewBox="0 0 32 32">
<path d="M18.035 8.328l8 12.8c0.229 0.361 0.365 0.801 0.365 1.272 0 1.325-1.075 2.4-2.4 2.4 0 0 0 0 0 0h-16c0 0 0 0 0 0-1.325 0-2.4-1.075-2.4-2.4 0-0.471 0.136-0.911 0.371-1.282l-0.006 0.010 8-12.8c0.431-0.682 1.181-1.128 2.035-1.128s1.604 0.446 2.029 1.118l0.006 0.010z"></path>
</symbol>
<symbol id="icon-triangle-double" viewBox="0 0 32 32">
<path d="M21.706 1.152c-0.266 0.146-19.481 14.598-19.566 14.716-0.148 0.205-0.165 0.568-0.037 0.809 0.058 0.11 0.135 0.236 0.171 0.28 0.073 0.090 19.121 14.384 19.373 14.538 0.112 0.068 0.254 0.098 0.469 0.098 0.279 0 0.328-0.017 0.517-0.178 0.369-0.316 0.519-0.806 0.347-1.137-0.040-0.078-0.161-0.219-0.268-0.315s-4.225-3.194-9.151-6.884-8.956-6.721-8.956-6.735 4.030-3.045 8.956-6.735c4.926-3.69 9.044-6.788 9.151-6.884s0.228-0.238 0.268-0.315c0.171-0.331 0.021-0.822-0.347-1.137-0.189-0.162-0.236-0.178-0.517-0.176-0.17 0.001-0.354 0.027-0.41 0.058zM29.271 1.191c-0.252 0.154-19.084 14.281-19.274 14.459-0.368 0.344-0.467 0.843-0.233 1.168 0.053 0.074 4.47 3.416 9.815 7.426 7.37 5.53 9.763 7.3 9.903 7.326 0.421 0.079 0.786-0.048 1.014-0.353l0.105-0.14 0.013-14.637c0.013-14.491 0.012-14.639-0.087-14.834-0.055-0.108-0.186-0.268-0.291-0.354-0.167-0.138-0.23-0.157-0.497-0.157-0.213 0-0.355 0.030-0.467 0.098zM28.746 16.343c0 6.794-0.015 12.352-0.034 12.352-0.044 0-16.482-12.319-16.482-12.352 0-0.035 16.43-12.349 16.478-12.351 0.021-0.001 0.038 5.557 0.038 12.351z"></path>
</symbol>
<symbol id="icon-twitter" viewBox="0 0 32 32">
<path d="M0.253 1.188l12.205 16.319-12.282 13.268h2.764l10.753-11.617 8.688 11.617h9.407l-12.892-17.238 11.432-12.35h-2.764l-9.903 10.699-8.001-10.699h-9.407zM4.318 3.224h4.321l19.083 25.515h-4.322l-19.083-25.515z"></path>
</symbol>
<symbol id="icon-weather-wind" viewBox="0 0 32 32">
<path d="M26.938 12c-1.656 0-3 1.344-3 3 0 0.353 0.073 0.685 0.184 1h-19.184c-0.552 0-1 0.448-1 1s0.448 1 1 1h22c1.656 0 3-1.344 3-3s-1.344-3-3-3zM4.938 14h12c1.656 0 3-1.344 3-3s-1.344-3-3-3-3 1.344-3 3c0 0.353 0.073 0.685 0.184 1h-9.184c-0.552 0-1 0.448-1 1s0.448 1 1 1zM20.938 20c-0.059 0-0.115 0.013-0.174 0.018-0.039-0.003-0.072-0.018-0.111-0.018h-15.428c-0.711 0-1.287 0.448-1.287 1s0.576 1 1.287 1h12.897c-0.111 0.315-0.184 0.648-0.184 1 0 1.656 1.344 3 3 3s3-1.344 3-3-1.344-3-3-3z"></path>
</symbol>
<symbol id="icon-youtube" viewBox="0 0 32 32">
<path d="M15.617 5.76c-4.225 0-8.192 0.32-10.305 0.768-1.408 0.32-2.625 1.28-2.88 2.752-0.255 1.535-0.513 3.84-0.513 6.72s0.255 5.12 0.575 6.72c0.258 1.408 1.473 2.432 2.88 2.752 2.243 0.448 6.080 0.768 10.305 0.768s8.063-0.32 10.303-0.768c1.41-0.32 2.625-1.28 2.88-2.752 0.257-1.6 0.577-3.903 0.64-6.783 0-2.88-0.32-5.185-0.64-6.785-0.255-1.408-1.47-2.433-2.88-2.753-2.24-0.32-6.143-0.64-10.365-0.64zM15.617 7.040c4.608 0 8.317 0.383 10.11 0.703 0.96 0.257 1.728 0.897 1.855 1.73 0.385 2.047 0.64 4.225 0.64 6.465-0.063 2.751-0.383 4.991-0.64 6.591-0.19 1.215-1.47 1.6-1.855 1.73-2.305 0.448-6.145 0.765-9.985 0.765s-7.743-0.256-9.983-0.766c-0.96-0.257-1.728-0.897-1.855-1.729-0.513-1.792-0.705-4.16-0.705-6.528 0-2.945 0.257-5.12 0.512-6.463 0.194-1.217 1.536-1.603 1.856-1.729 2.112-0.448 6.017-0.768 10.049-0.768zM12.16 10.88v10.24l8.96-5.12zM13.44 13.057l5.12 2.943-5.12 2.943z"></path>
</symbol>
</defs>
</svg>

